<svg width="351" height="236" viewBox="0 0 351 236" fill="none" xmlns="http://www.w3.org/2000/svg">
<rect width="351" height="236" fill="white"/>
<path d="M312.134 70.9296L307.656 92.804L304.775 89.9696L299.869 93.4964L296.121 88.8042L287.713 94.9685L280.533 82.8518L272.519 87.5851L269.342 83.1657L259.167 88.9477L256.105 82.3383L263.237 47.4995L301.475 55.4617L312.134 70.9296Z" fill="#EBEBEB"/>
<path d="M301.476 55.4619L312.136 70.9279L298.875 68.1667L301.476 55.4619Z" fill="#DBDBDB"/>
<path d="M306.702 97.1761L300.134 129.27L248.633 118.548L255.152 86.7104L258.214 93.3194L268.389 87.5374L271.566 91.9572L279.58 87.224L286.76 99.3402L295.168 93.1759L298.916 97.8681L303.822 94.3418L306.702 97.1761Z" fill="#EBEBEB"/>
<path d="M232.988 93.4151L180.501 96.6908L176.332 28.7389L215.303 26.3066L229.613 38.4111L232.988 93.4151Z" fill="#EBEBEB"/>
<path d="M215.305 26.3066L229.615 38.4111L216.099 39.2545L215.305 26.3066Z" fill="#DBDBDB"/>
<path d="M200.753 72.0258L200.55 70.4932C200.02 67.3162 200.883 63.7634 203.62 60.046C206.087 56.759 207.427 54.3669 207.279 51.7034C207.111 48.684 205.121 46.7771 201.42 46.9267C199.306 47.0461 196.998 47.8891 195.593 49.097L193.977 45.4465C195.835 43.9163 199.128 42.7802 202.239 42.6042C208.99 42.2228 212.275 46.2541 212.525 50.7528C212.749 54.7789 210.679 57.8054 208.049 61.3392C205.637 64.5635 204.843 67.2218 205.187 70.2308L205.331 71.7667L200.753 72.0258ZM199.922 80.3868C199.8 78.1963 201.182 76.574 203.236 76.4579C205.29 76.3418 206.785 77.8017 206.906 79.9922C207.022 82.0643 205.76 83.739 203.588 83.8617C201.534 83.9778 200.037 82.4589 199.922 80.3868Z" fill="#DBDBDB"/>
<path d="M69.4887 60.4699L64.2068 58.0542L63.4744 59.6854C63.2591 60.165 62.7925 60.4713 62.2707 60.4944C61.9824 60.5072 61.6941 60.536 61.4072 60.5799C60.8924 60.6592 60.3767 60.4501 60.0734 60.0234L59.0396 58.5677L54.3236 61.9756L55.3574 63.4307C55.6607 63.8579 55.6911 64.4172 55.4515 64.8836C55.3176 65.1432 55.1983 65.4094 55.0935 65.6808C54.9039 66.1717 54.4663 66.5186 53.9469 66.57L52.1797 66.7447L52.7492 72.5654L54.5225 72.3874C55.0424 72.335 55.5343 72.596 55.8165 73.0397C55.8933 73.1601 55.9733 73.279 56.0561 73.3961C56.1394 73.5131 56.2251 73.6278 56.3135 73.7397C56.6374 74.1499 56.7244 74.7007 56.5101 75.1784L55.7725 76.8214L61.0544 79.2371L61.7901 77.6026C62.0058 77.123 62.4733 76.8171 62.9952 76.7945C63.2825 76.7822 63.5694 76.7539 63.8554 76.7105C64.3697 76.6321 64.8845 76.8407 65.1877 77.2674L66.222 78.7236L70.9381 75.3157L69.9038 73.8596C69.601 73.4329 69.5701 72.8741 69.8092 72.4082C69.9422 72.1495 70.0606 71.8843 70.1645 71.6138C70.3535 71.1229 70.7906 70.7751 71.3106 70.7232L73.0815 70.5462L72.5119 64.7254L70.7401 64.902C70.222 64.9534 69.7316 64.6934 69.4503 64.2511C69.3731 64.1303 69.2926 64.0104 69.2088 63.8919C69.1255 63.7748 69.0399 63.6601 68.9514 63.5483C68.6257 63.1362 68.5386 62.5826 68.7544 62.1025L69.4887 60.4699ZM66.4925 65.8549C68.0205 68.0058 67.5306 70.996 65.3983 72.537C63.2657 74.0781 60.2971 73.5868 58.7691 71.4359C57.2411 69.285 57.732 66.2882 59.8647 64.7472C61.9969 63.2065 64.9645 63.7045 66.4925 65.8549Z" fill="#EBEBEB"/>
<path d="M308.123 137.688L304.603 139.736L305.226 140.823C305.409 141.142 305.391 141.535 305.192 141.844C305.081 142.015 304.98 142.192 304.887 142.374C304.722 142.702 304.394 142.913 304.029 142.913H302.785V147.012H304.029C304.394 147.012 304.722 147.223 304.887 147.551C304.98 147.734 305.081 147.911 305.192 148.082C305.391 148.391 305.409 148.784 305.226 149.103L304.603 150.189L308.123 152.237L308.746 151.146C308.928 150.826 309.276 150.65 309.642 150.669C309.741 150.674 309.841 150.676 309.941 150.676C310.041 150.676 310.141 150.674 310.24 150.669C310.604 150.65 310.95 150.825 311.132 151.143L311.759 152.237L315.278 150.189L314.655 149.1C314.472 148.78 314.49 148.387 314.691 148.078C314.801 147.908 314.902 147.732 314.994 147.55C315.16 147.222 315.488 147.012 315.852 147.012H317.096V142.913H315.852C315.488 142.913 315.16 142.702 314.994 142.375C314.902 142.193 314.801 142.017 314.691 141.847C314.49 141.538 314.473 141.145 314.655 140.825L315.278 139.736L311.759 137.688L311.136 138.777C310.953 139.096 310.606 139.272 310.242 139.253C310.142 139.247 310.042 139.245 309.94 139.245C309.84 139.245 309.741 139.247 309.641 139.253C309.276 139.272 308.928 139.095 308.745 138.776L308.123 137.688ZM309.941 141.607C311.779 141.607 313.268 143.108 313.268 144.961C313.268 146.815 311.779 148.32 309.941 148.32C308.104 148.32 306.612 146.815 306.612 144.961C306.612 143.108 308.103 141.607 309.941 141.607Z" fill="#EBEBEB"/>
<path d="M80.1707 43.029L76.9434 45.5179L77.6992 46.5138C77.9215 46.8069 77.9543 47.1987 77.7961 47.531C77.7081 47.7146 77.6304 47.9034 77.5625 48.0969C77.4409 48.4434 77.1418 48.6954 76.7801 48.7431L75.5469 48.905L76.0715 52.9698L77.3047 52.8079C77.6664 52.7603 78.0193 52.9269 78.2248 53.2304C78.3394 53.3998 78.4625 53.5622 78.594 53.717C78.8318 53.9974 78.8992 54.3849 78.7588 54.7252L78.2809 55.8835L82.0324 57.4562L82.5102 56.2932C82.6506 55.9524 82.9731 55.7325 83.3381 55.7032C83.4374 55.6952 83.5366 55.6848 83.6358 55.672C83.735 55.6588 83.8337 55.6437 83.9311 55.6253C84.2896 55.5592 84.6556 55.6876 84.8769 55.9793L85.6384 56.9828L88.8662 54.4939L88.1094 53.4947C87.8871 53.2016 87.8548 52.8094 88.0139 52.4771C88.1014 52.2939 88.1791 52.1061 88.247 51.9135C88.3691 51.5675 88.6677 51.316 89.029 51.2683L90.2627 51.1064L89.738 47.0415L88.5044 47.2034C88.1431 47.2511 87.7907 47.0849 87.5848 46.7814C87.4706 46.6129 87.3475 46.4515 87.2165 46.2972C86.9782 46.0168 86.9099 45.6293 87.0503 45.2885L87.5286 44.1274L83.7767 42.5547L83.2979 43.7163C83.158 44.0561 82.836 44.2751 82.4723 44.3039C82.3731 44.3119 82.273 44.3223 82.1723 44.3355C82.0731 44.3488 81.9744 44.3639 81.8766 44.3818C81.5162 44.4484 81.1488 44.319 80.9261 44.0254L80.1707 43.029ZM82.4751 46.6776C84.2975 46.4383 85.966 47.7335 86.2032 49.5714C86.4405 51.4094 85.1568 53.0954 83.3344 53.3347C81.512 53.574 79.8398 52.276 79.6026 50.438C79.3653 48.6001 80.6528 46.9169 82.4751 46.6776Z" fill="#EBEBEB"/>
<path d="M56.0765 149.522C56.2609 144.954 56.1869 140.378 55.8902 135.817C55.2781 126.41 53.7426 117.076 51.6337 107.897C50.4469 102.73 48.9849 97.6506 47.462 92.5766C47.4161 92.4232 47.1737 92.4666 47.2158 92.6261C51.9258 110.513 55.7901 128.972 55.5242 147.565C55.4498 152.769 54.8527 157.88 54.3627 163.05C54.3496 163.189 54.5751 163.244 54.6065 163.102C55.5781 158.677 55.894 154.041 56.0765 149.522Z" fill="#EBEBEB"/>
<path d="M47.2162 92.6265C47.2162 92.6265 40.0811 110.892 41.6784 115.185C43.2762 119.479 46.5695 120.394 46.5695 120.394C46.5695 120.394 42.204 126.68 45.2544 132.576C48.3053 138.472 55.0833 138.193 55.5335 144.878C55.5335 144.878 55.9112 116.926 47.2162 92.6265Z" fill="#EBEBEB"/>
<path d="M54.757 133.337C54.7658 133.306 54.7635 133.273 54.7495 133.241C53.7475 120.821 51.5628 108.44 47.8287 96.497C47.8179 96.4616 47.7604 96.473 47.7697 96.5098C49.1835 101.853 50.4415 107.225 51.5165 112.626C50.5899 111.663 49.3778 111.11 48.1104 110.71C48.0865 110.703 48.0748 110.737 48.0973 110.747C49.4171 111.323 50.6811 111.989 51.6139 113.117C51.8221 114.176 52.0262 115.235 52.2199 116.296C50.6254 114.498 48.4141 113.607 46.2014 112.759C46.1701 112.747 46.1537 112.795 46.1841 112.808C48.4886 113.754 50.7841 114.973 52.3453 116.976C52.8896 120.007 53.3661 123.049 53.7784 126.1C52.6126 124.872 51.1739 124.047 49.5238 123.641C49.4742 123.629 49.4466 123.703 49.4966 123.718C51.1922 124.21 52.6505 125.167 53.8116 126.505C53.82 126.515 53.8289 126.52 53.8383 126.526C53.981 127.599 54.1158 128.674 54.2422 129.75C53.3445 128.978 52.3524 128.39 51.2601 127.936C51.231 127.924 51.2156 127.969 51.2437 127.981C52.3533 128.458 53.3515 129.144 54.2305 129.975C54.2431 129.987 54.2557 129.985 54.2684 129.99C54.3872 131.013 54.5056 132.036 54.6081 133.061C52.9725 131.073 50.9498 129.635 48.5564 128.703C48.5096 128.685 48.4857 128.757 48.5307 128.777C50.8576 129.798 52.9088 131.414 54.4949 133.406C54.5384 133.46 54.595 133.469 54.6451 133.453C54.7995 135.025 54.9376 136.599 55.0518 138.177C55.0532 138.198 55.0883 138.2 55.0874 138.178C54.998 136.564 54.8861 134.95 54.757 133.337Z" fill="white"/>
<path d="M49.0261 108.895C47.7887 108.037 46.2162 107.671 44.7392 107.546C44.7036 107.544 44.7008 107.597 44.7354 107.601C46.2719 107.832 47.5626 108.392 48.9741 108.997C49.0354 109.024 49.0794 108.932 49.0261 108.895Z" fill="white"/>
<path d="M49.8899 128.233C48.9108 127.64 47.7937 127.305 46.6719 127.123C46.6326 127.116 46.6293 127.177 46.6677 127.184C47.8068 127.392 48.8158 127.801 49.8511 128.31C49.895 128.332 49.9316 128.258 49.8899 128.233Z" fill="white"/>
<path d="M74.8348 115.483C71.8593 117.593 69.0035 120.026 66.5765 122.764C63.9894 125.682 62.1024 128.994 60.7845 132.67C58.0846 140.201 56.6048 148.359 56.47 156.362C56.3942 160.849 56.7901 165.301 57.7421 169.687C57.7767 169.846 58.013 169.801 57.9892 169.64C56.8257 161.924 56.8683 154.051 58.1183 146.349C59.345 138.793 61.2698 130.572 66.0322 124.432C68.6254 121.088 71.8588 118.457 75.0552 115.738C75.2223 115.595 75.0075 115.36 74.8348 115.483Z" fill="#EBEBEB"/>
<path d="M57.5195 150.922C57.5195 150.922 59.97 146.76 63.5394 143.161C67.1089 139.562 70.1153 137.004 70.5791 134.624C71.0433 132.243 67.0036 130.49 67.0036 130.49C67.0036 130.49 71.9433 131.385 73.2949 129.294C74.6465 127.203 75.2989 115.094 75.2989 115.094C75.2989 115.094 66.3128 121.564 62.1256 130.635C57.9389 139.705 57.5195 150.922 57.5195 150.922Z" fill="#EBEBEB"/>
<path d="M72.188 118.199C68.407 121.944 64.6017 125.935 62.375 130.856C61.6117 132.543 60.9621 134.292 60.3902 136.075C60.3888 136.078 60.3888 136.08 60.3874 136.083C60.2727 136.441 60.1562 136.798 60.0481 137.158C60.0373 137.176 60.0317 137.196 60.0298 137.217C58.9291 140.892 58.1508 144.692 57.4769 148.404C57.4727 148.428 57.5087 148.441 57.5134 148.416C57.9004 146.527 58.3277 144.619 58.8046 142.717C58.8215 142.717 58.8397 142.714 58.8584 142.706C59.6227 142.382 60.3916 142.179 61.2167 142.102C61.2705 142.097 61.2663 142.003 61.2115 142.006C60.4155 142.045 59.6358 142.185 58.879 142.435C59.3143 140.72 59.7874 139.009 60.3195 137.324C62.0544 136.895 63.8651 136.664 65.6491 136.621C65.6674 136.62 65.6706 136.593 65.6515 136.592C63.8529 136.507 62.1625 136.663 60.4108 137.04C60.5035 136.751 60.5999 136.464 60.6958 136.175C61.8672 135.906 63.0438 135.68 64.2423 135.569C64.2638 135.567 64.262 135.53 64.2404 135.531C63.0667 135.563 61.9098 135.687 60.7679 135.956C61.2569 134.497 61.7853 133.059 62.3712 131.657C62.8561 130.498 63.4327 129.397 64.0677 128.335C65.0285 128.115 65.9599 127.907 66.9445 127.818C66.9717 127.815 66.9689 127.771 66.9422 127.769C66.0483 127.711 65.1175 127.778 64.2526 128.038C64.7253 127.268 65.2218 126.513 65.7535 125.783C67.7687 125.332 69.8115 124.915 71.8731 125.305C71.9086 125.312 71.9217 125.251 71.8866 125.242C69.9243 124.722 67.9765 125.022 66.024 125.412C66.2369 125.126 66.455 124.844 66.675 124.563C67.9119 124.177 69.1423 123.99 70.44 123.966C70.4667 123.966 70.4709 123.927 70.4433 123.924C69.2588 123.81 68.0776 123.925 66.9328 124.238C68.5989 122.151 70.4391 120.19 72.2582 118.251C72.3434 118.162 72.2779 118.11 72.188 118.199Z" fill="white"/>
<path d="M72.0884 126.453C71.4968 126.389 70.8954 126.323 70.3011 126.39C70.229 126.398 70.2351 126.517 70.3076 126.518C70.8992 126.536 71.4907 126.492 72.0823 126.524C72.1277 126.526 72.1333 126.458 72.0884 126.453Z" fill="white"/>
<path d="M65.621 138.2C64.6766 138.188 63.7336 138.445 62.8514 138.761C62.8294 138.769 62.8416 138.806 62.8645 138.8C63.779 138.581 64.7042 138.492 65.6281 138.338C65.7039 138.326 65.7001 138.201 65.621 138.2Z" fill="white"/>
<path d="M63.6839 134.142C63.3006 134.122 62.886 134.19 62.5083 134.249C62.4695 134.255 62.4718 134.319 62.512 134.32C62.8939 134.326 63.3142 134.337 63.6905 134.264C63.7569 134.251 63.7541 134.146 63.6839 134.142Z" fill="white"/>
<path d="M31.1773 128.334C34.0691 129.348 36.9375 130.651 39.5293 132.301C42.2919 134.059 44.5781 136.3 46.487 138.967C50.3976 144.433 53.4649 150.69 55.4085 157.136C56.498 160.749 57.1981 164.444 57.4326 168.215C57.441 168.352 57.2393 168.371 57.222 168.234C56.3951 161.719 54.5563 155.357 51.7796 149.416C49.0554 143.586 45.6137 137.383 40.352 133.523C37.4869 131.422 34.2675 130.046 31.0575 128.591C30.8895 128.515 31.0093 128.275 31.1773 128.334Z" fill="#EBEBEB"/>
<path d="M53.3102 152.977C53.3102 152.977 50.373 150.18 46.6599 148.1C42.9463 146.019 39.9273 144.65 39.0062 142.832C38.0852 141.014 40.9526 138.653 40.9526 138.653C40.9526 138.653 37.16 140.528 35.587 139.151C34.0141 137.775 30.7109 128.127 30.7109 128.127C30.7109 128.127 39.4663 131.269 44.933 137.633C50.4002 143.998 53.3102 152.977 53.3102 152.977Z" fill="#EBEBEB"/>
<path d="M52.8548 150.987C48.4757 142.698 42.6327 135.198 34.6262 130.249C34.6224 130.246 34.6192 130.252 34.6224 130.254C36.7303 131.608 38.6725 133.171 40.4827 134.879C38.8621 134.834 37.2124 135.094 35.7756 135.881C35.7438 135.898 35.7667 135.942 35.7995 135.931C37.401 135.384 38.9393 135.025 40.6428 135.105C40.6662 135.106 40.6812 135.094 40.6975 135.084C40.9816 135.356 41.262 135.632 41.5395 135.911C40.6971 135.947 39.8449 136.067 39.024 136.247C39.002 136.252 39.0081 136.286 39.0305 136.282C39.9188 136.109 40.786 136.049 41.6874 136.061C43.1545 137.548 44.5216 139.139 45.817 140.79C45.232 140.704 44.6189 140.754 44.0583 140.919C44.0166 140.931 44.0274 140.992 44.0709 140.986C44.7088 140.905 45.3153 140.915 45.9485 140.96C46.1881 141.268 46.4305 141.574 46.6655 141.885C44.8651 141.776 43.1012 141.95 41.3518 142.406C41.3261 142.413 41.3331 142.453 41.3598 142.448C43.1644 142.091 44.984 141.976 46.8176 142.09C47.0408 142.389 47.2524 142.696 47.4714 142.998C46.3973 142.965 45.3556 143.101 44.3082 143.364C44.2684 143.374 44.2796 143.437 44.3203 143.427C45.3977 143.18 46.4933 143.117 47.5945 143.17C48.5365 144.479 49.4389 145.817 50.3061 147.171C49.8469 147.076 49.3649 147.128 48.9175 147.255C48.8936 147.262 48.9002 147.296 48.925 147.293C49.4403 147.233 49.9214 147.3 50.4273 147.365C51.207 148.59 51.9609 149.826 52.683 151.07C52.7448 151.176 52.9128 151.097 52.8548 150.987Z" fill="white"/>
<path d="M46.0428 144.111C45.1868 144.037 44.3168 144.172 43.4992 144.425C43.4758 144.432 43.4814 144.468 43.5067 144.463C44.3486 144.307 45.1831 144.248 46.0362 144.202C46.0919 144.199 46.1027 144.117 46.0428 144.111Z" fill="white"/>
<path d="M38.4043 134.009C38.0172 133.965 37.6133 134.016 37.231 134.078C37.1856 134.085 37.1996 134.153 37.2446 134.148C37.6302 134.107 38.0107 134.121 38.3968 134.109C38.4595 134.108 38.4698 134.016 38.4043 134.009Z" fill="white"/>
<path d="M64.603 180.389H44.8398L47.6577 159.571L48.3779 154.233H61.0649L61.7847 159.571L64.603 180.389Z" fill="#DBDBDB"/>
<path d="M61.7833 159.571H47.6562L48.3765 154.233H61.0635L61.7833 159.571Z" fill="#C7C7C7"/>
<path d="M62.8779 152.381H46.5625V156.902H62.8779V152.381Z" fill="#DBDBDB"/>
<path d="M32.2734 180.389L67.8457 180.274L103.418 180.233L174.562 180.153L245.707 180.232L281.279 180.274L316.851 180.389L281.279 180.504L245.707 180.546L174.562 180.624L103.418 180.546L67.8457 180.504L32.2734 180.389Z" fill="#263238"/>
<path d="M175.5 215.569C249.614 215.569 309.695 208.929 309.695 200.739C309.695 192.548 249.614 185.909 175.5 185.909C101.386 185.909 41.3047 192.548 41.3047 200.739C41.3047 208.929 101.386 215.569 175.5 215.569Z" fill="#EBEBEB"/>
<path d="M144.257 198.281C143.166 198.653 111.897 198.764 110.702 198.009C110.247 197.725 109.966 193.132 109.781 187.574C109.741 186.374 109.707 185.134 109.68 183.875L107.145 167.055L128.048 166.92L130.021 183.744L129.941 187.444C129.941 187.444 141.931 192.802 143.154 193.773C144.371 194.744 145.348 197.909 144.257 198.281Z" fill="#EB9481"/>
<path d="M144.256 198.281C143.166 198.653 111.897 198.764 110.701 198.008C110.149 197.66 109.848 190.953 109.68 183.875L130.02 183.743L129.94 187.444C129.94 187.444 141.931 192.802 143.153 193.773C144.37 194.744 145.348 197.908 144.256 198.281Z" fill="white"/>
<path d="M144.257 198.281C143.166 198.654 111.897 198.765 110.702 198.009C110.247 197.725 109.966 193.133 109.781 187.575L129.941 187.444C129.941 187.444 141.931 192.802 143.154 193.773C144.371 194.744 145.348 197.909 144.257 198.281Z" fill="#A6A6A6"/>
<path d="M143.804 197.021C138.562 196.91 117.409 196.961 112.219 197.252C112.177 197.255 112.177 197.283 112.219 197.285C117.412 197.51 138.565 197.287 143.805 197.108C143.915 197.104 143.915 197.024 143.804 197.021Z" fill="#263238"/>
<path d="M141.139 192.646C139.896 192.599 138.683 193.199 138.007 193.948C137.359 194.668 136.805 195.678 136.846 196.775C136.847 196.806 136.905 196.807 136.909 196.774C137.201 194.704 139.06 192.881 141.139 192.712C141.181 192.708 141.181 192.648 141.139 192.646Z" fill="#263238"/>
<path d="M131.976 187.963C129.878 187.941 127.449 188.696 126.151 190.431C126.101 190.498 126.196 190.57 126.258 190.537C128.151 189.545 129.951 188.803 132.013 188.223C132.159 188.182 132.127 187.964 131.976 187.963Z" fill="#263238"/>
<path d="M133.597 188.594C131.499 188.572 129.07 189.327 127.772 191.062C127.722 191.13 127.817 191.201 127.879 191.168C129.772 190.175 131.572 189.434 133.634 188.854C133.78 188.813 133.748 188.595 133.597 188.594Z" fill="#263238"/>
<path d="M135.219 189.225C133.121 189.203 130.691 189.959 129.393 191.694C129.343 191.761 129.438 191.832 129.5 191.799C131.393 190.807 133.194 190.066 135.256 189.486C135.401 189.445 135.369 189.226 135.219 189.225Z" fill="#263238"/>
<path d="M136.839 189.856C134.741 189.834 132.312 190.589 131.014 192.325C130.964 192.392 131.059 192.463 131.121 192.43C133.014 191.438 134.815 190.697 136.876 190.116C137.022 190.075 136.99 189.857 136.839 189.856Z" fill="#263238"/>
<path d="M113.536 192.227C111.183 192.242 111.202 195.931 113.56 195.916C115.913 195.901 115.894 192.212 113.536 192.227Z" fill="#263238"/>
<path d="M134.224 182.309C133.159 181.424 131.824 182.297 131.173 183.222C130.117 184.719 129.396 186.815 129.285 188.639C129.283 188.684 129.317 188.702 129.351 188.7C129.396 188.851 129.574 188.978 129.728 188.869C131.219 187.822 132.94 186.889 134.067 185.411C134.725 184.548 135.231 183.145 134.224 182.309ZM131.666 186.815C130.945 187.348 130.203 187.842 129.502 188.402C129.874 187.346 130.197 186.28 130.674 185.263C130.901 184.777 131.144 184.283 131.435 183.832C131.889 183.132 133.942 181.356 134.159 183.657C134.278 184.926 132.524 186.179 131.666 186.815Z" fill="#263238"/>
<path d="M124.074 189.442C125.901 189.718 127.784 189.187 129.577 188.9C129.764 188.87 129.805 188.654 129.733 188.513C129.76 188.491 129.772 188.454 129.739 188.424C128.405 187.187 126.445 186.18 124.655 185.84C123.55 185.629 121.988 185.934 121.828 187.316C121.677 188.623 123.007 189.28 124.074 189.442ZM122.803 188.242C121.377 186.432 124.077 186.276 124.885 186.464C125.405 186.585 125.919 186.771 126.417 186.962C127.46 187.362 128.426 187.904 129.419 188.405C128.529 188.491 127.655 188.654 126.769 188.774C125.714 188.917 123.589 189.24 122.803 188.242Z" fill="#263238"/>
<path d="M76.4297 89.3037C76.4297 89.3037 100.705 130.953 101.355 133.877C102.354 138.37 107.648 182.746 107.648 182.746L132.907 182.287C132.907 182.287 128.553 143.162 124.43 130.272C121.46 120.988 100.037 90.1953 100.037 90.1953L76.4297 89.3037Z" fill="#808080"/>
<path d="M130.61 178.381C126.983 178.354 114.129 178.208 109.301 178.663C109.264 178.666 109.265 178.728 109.301 178.733C110.963 178.974 126.986 178.599 130.612 178.481C130.68 178.479 130.679 178.381 130.61 178.381Z" fill="#263238"/>
<path d="M80.5742 93.1255C82.1649 95.6417 83.8431 98.1056 85.4694 100.6C87.0967 103.096 88.7178 105.595 90.3179 108.108C93.5158 113.13 96.6303 118.205 99.6878 123.312C101.122 125.707 102.487 128.124 103.472 130.736C104.447 133.324 105.111 136.016 105.603 138.73C106.098 141.464 106.424 144.225 106.732 146.984C107.059 149.922 107.382 152.861 107.707 155.8C108.373 161.812 109.038 167.825 109.704 173.837C109.785 174.575 109.865 175.312 109.939 176.051C109.95 176.159 109.758 176.181 109.744 176.072C109.001 170.098 108.384 164.105 107.708 158.123C107.372 155.144 107.036 152.166 106.7 149.188C106.388 146.419 106.09 143.646 105.665 140.891C105.246 138.185 104.702 135.49 103.886 132.871C103.033 130.134 101.824 127.565 100.393 125.077C97.4662 119.985 94.3689 114.98 91.2703 109.989C88.145 104.955 84.9935 99.9341 81.725 94.988C81.3216 94.3772 80.9144 93.7702 80.496 93.1689C80.4633 93.1217 80.5433 93.0769 80.5742 93.1255Z" fill="#263238"/>
<path d="M84.3893 200.738C83.2375 200.666 53.5031 188.516 52.6743 187.365C52.6467 187.326 52.6303 187.25 52.6289 187.143C52.6345 186.111 54.6937 182.502 56.4146 177.766C56.5222 177.463 57.2897 176.058 58.3549 174.162C61.2827 168.957 66.4635 160.039 66.4635 160.039L85.899 167.827L76.5961 181.872L75.1481 185.271C75.1481 185.271 84.2699 194.778 85.0402 196.139C85.8059 197.499 85.5368 200.803 84.3893 200.738Z" fill="#EB9481"/>
<path d="M84.3893 200.738C83.2375 200.666 53.5031 188.516 52.6743 187.364C52.6467 187.326 52.6303 187.25 52.6289 187.143C52.6345 186.111 54.6937 182.502 56.4146 177.766C56.5222 177.463 57.2897 176.058 58.3549 174.162L76.5966 181.872L75.1486 185.271C75.1486 185.271 84.2704 194.778 85.0407 196.138C85.8059 197.499 85.5368 200.803 84.3893 200.738Z" fill="white"/>
<path d="M84.3868 200.736C83.2369 200.668 53.5016 188.516 52.6746 187.363C52.3587 186.928 53.6883 182.832 56.4121 177.767L75.148 185.274C75.148 185.274 84.2698 194.777 85.042 196.14C85.8076 197.5 85.5366 200.803 84.3868 200.736Z" fill="#A6A6A6"/>
<path d="M84.4358 199.397C79.6182 197.311 59.9908 189.354 55.0712 187.66C55.0314 187.647 55.0206 187.674 55.059 187.691C59.7895 189.864 79.4802 197.66 84.404 199.477C84.5079 199.516 84.5374 199.441 84.4358 199.397Z" fill="#263238"/>
<path d="M83.5945 194.332C82.4596 193.818 81.1122 193.915 80.2075 194.354C79.3385 194.776 78.4493 195.503 78.0795 196.535C78.0688 196.564 78.1221 196.587 78.1385 196.558C79.1793 194.75 81.5811 193.763 83.5706 194.393C83.6104 194.406 83.6338 194.349 83.5945 194.332Z" fill="#263238"/>
<path d="M76.8424 186.524C74.9058 185.71 72.3726 185.491 70.524 186.608C70.4524 186.651 70.5146 186.753 70.5843 186.747C72.7086 186.543 74.6527 186.537 76.7797 186.779C76.9299 186.796 76.981 186.583 76.8424 186.524Z" fill="#263238"/>
<path d="M78.108 187.723C76.1715 186.909 73.6382 186.689 71.7896 187.807C71.718 187.85 71.7802 187.952 71.85 187.945C73.9737 187.741 75.9183 187.735 78.0453 187.978C78.1956 187.995 78.2466 187.781 78.108 187.723Z" fill="#263238"/>
<path d="M79.3776 188.921C77.441 188.107 74.9077 187.888 73.0591 189.005C72.9875 189.049 73.0498 189.151 73.1195 189.144C75.2433 188.94 77.1878 188.934 79.3149 189.177C79.4646 189.194 79.5161 188.979 79.3776 188.921Z" fill="#263238"/>
<path d="M80.6467 190.12C78.7102 189.305 76.1769 189.086 74.3287 190.204C74.2571 190.247 74.3189 190.349 74.3891 190.342C76.5134 190.139 78.4574 190.133 80.5845 190.375C80.7343 190.392 80.7857 190.178 80.6467 190.12Z" fill="#263238"/>
<path d="M58.1605 183.5C55.9731 182.624 54.6187 186.051 56.8099 186.929C58.9978 187.805 60.3521 184.378 58.1605 183.5Z" fill="#263238"/>
<path d="M81.029 182.133C80.3706 180.911 78.8089 181.214 77.8612 181.825C76.3261 182.813 74.8776 184.484 74.0966 186.132C74.0774 186.173 74.1022 186.202 74.1349 186.213C74.1204 186.371 74.2384 186.555 74.4223 186.513C76.1932 186.106 78.1363 185.893 79.7303 184.95C80.6607 184.399 81.6515 183.29 81.029 182.133ZM76.9813 185.343C76.115 185.564 75.2436 185.742 74.3858 185.995C75.1224 185.157 75.8193 184.291 76.6392 183.528C77.0304 183.164 77.4395 182.798 77.8771 182.491C78.558 182.013 81.1217 181.144 80.4665 183.359C80.1052 184.58 78.0137 185.078 76.9813 185.343Z" fill="#263238"/>
<path d="M68.9673 184.906C70.5585 185.854 72.5012 186.073 74.2707 186.486C74.4541 186.529 74.5725 186.345 74.559 186.187C74.5917 186.176 74.617 186.147 74.5978 186.106C73.8214 184.455 72.3781 182.78 70.8463 181.787C69.9 181.174 68.3393 180.865 67.6775 182.086C67.0508 183.241 68.0383 184.353 68.9673 184.906ZM68.2358 183.313C67.5876 181.095 70.1485 181.973 70.8276 182.453C71.2642 182.761 71.6719 183.129 72.0622 183.494C72.8798 184.259 73.5743 185.128 74.3086 185.968C73.4517 185.711 72.5807 185.531 71.7149 185.307C70.6835 185.04 68.5929 184.535 68.2358 183.313Z" fill="#263238"/>
<path d="M78.0948 181.086L56.3398 172.226C56.3398 172.226 83.3135 132.227 83.5133 129.25C83.6898 126.612 71.8423 103.663 71.3753 96.9749C70.8712 89.757 74.3176 84.1705 78.1042 80.7036L100.547 90.3253C100.547 90.3253 98.1786 94.1471 94.4472 96.2744C94.4472 96.2744 105.956 122.801 105.303 130.957C104.647 139.158 78.0948 181.086 78.0948 181.086Z" fill="#808080"/>
<path d="M79.0607 176.914C75.9148 175.55 76.8368 175.896 73.6755 174.568C72.1287 173.917 61.9596 169.654 60.4114 169.303C60.3772 169.295 60.3553 169.35 60.3852 169.368C61.7387 170.204 71.9794 174.288 73.5383 174.908C76.724 176.175 75.8231 175.776 79.0228 177.007C79.0832 177.03 79.1197 176.939 79.0607 176.914Z" fill="#263238"/>
<path d="M98.1406 95.7894C95.8025 96.2963 93.5089 97.1294 91.3055 98.0248C91.2189 98.0602 91.2596 98.1895 91.3523 98.1621C93.6464 97.4867 95.9799 96.8556 98.2319 96.0575C98.4088 95.9947 98.3199 95.7502 98.1406 95.7894Z" fill="#263238"/>
<path d="M95.4764 94.8574C95.2551 95.2464 95.0674 95.6561 94.8999 96.07C94.7702 96.3914 94.6036 96.736 94.6055 97.0867C94.606 97.1547 94.6967 97.1712 94.7384 97.1297C94.9991 96.871 95.1376 96.4934 95.3023 96.171C95.4933 95.7977 95.6927 95.4276 95.8728 95.0486C95.9922 94.7975 95.6126 94.6177 95.4764 94.8574Z" fill="#263238"/>
<path d="M95.7491 92.7299C95.8867 92.3816 96.0252 92.0337 96.1703 91.6887C96.3205 91.3314 96.4951 90.9793 96.6177 90.6116C96.6369 90.5535 96.7282 90.5927 96.7052 90.6512C96.5681 91 96.4787 91.372 96.3687 91.7307C96.2583 92.0908 96.1418 92.4486 96.0238 92.8064C95.8039 93.4724 95.5348 94.1332 95.2511 94.776C95.6181 94.7713 95.9957 94.7548 96.3294 94.5872C96.6917 94.405 96.9111 94.0171 97.0895 93.6664C97.2874 93.277 97.4695 92.8786 97.673 92.492C97.8982 92.0644 98.1471 91.6415 98.2955 91.1784C98.3142 91.1199 98.4036 91.1591 98.383 91.2176C98.0451 92.1734 97.7128 93.1278 97.1873 94.0086C96.9809 94.3545 96.8133 94.7147 96.4329 94.8501C96.0243 94.9955 95.5773 94.9672 95.1519 94.936C95.0995 94.9507 95.0317 94.9167 95.0499 94.8525C95.2507 94.1402 95.4767 93.4181 95.7491 92.7299Z" fill="#263238"/>
<path d="M94.7976 97.1383C95.5951 98.8436 96.2966 100.543 97.0422 102.242C97.7708 103.903 98.4532 105.582 99.1154 107.27C100.454 110.681 101.653 114.154 102.704 117.667C103.225 119.404 103.704 121.155 104.138 122.917C104.572 124.683 104.996 126.468 105.176 128.282C105.357 130.102 105.228 131.902 104.726 133.662C104.216 135.448 103.544 137.007 102.745 138.678C102.258 139.699 102.09 139.561 102.326 139.045C102.996 137.584 104.75 133.152 104.622 129.427C104.561 127.63 104.195 125.859 103.793 124.113C103.382 122.33 102.918 120.56 102.412 118.803C101.415 115.34 100.231 111.945 99.0129 108.556C98.3306 106.657 97.5981 104.778 96.9055 102.883C96.2077 100.974 95.4884 99.2566 94.7143 97.1723C94.6937 97.1175 94.7728 97.0854 94.7976 97.1383Z" fill="#263238"/>
<path d="M78.2775 91.5055C78.6674 91.3602 79.2079 91.6009 79.6052 91.6679C80.1149 91.7543 80.6302 91.8067 81.1468 91.8246C81.656 91.8421 82.1694 91.8213 82.6763 91.7713C83.1831 91.7217 83.7002 91.6585 84.1406 91.3809C84.8829 90.9137 85.5044 90.0905 86.0075 89.3815C86.5602 88.6023 87.1339 87.7064 87.4634 86.804C87.4835 86.7487 87.5626 86.7865 87.5453 86.8408C87.3815 87.367 87.2598 87.8976 87.0516 88.4116C86.8555 88.8954 86.6023 89.3579 86.3337 89.8035C85.832 90.6361 85.2563 91.5249 84.3961 92.02C83.4934 92.5397 82.3304 92.5085 81.3237 92.45C80.7415 92.416 80.1617 92.3386 79.5907 92.2173C79.1789 92.1295 78.4858 92.063 78.2232 91.6981C78.176 91.6339 78.2008 91.5343 78.2775 91.5055Z" fill="#263238"/>
<path d="M62.5492 168.045C66.1252 162.587 69.6347 157.085 73.0811 151.543C76.5363 145.986 79.9279 140.388 83.2722 134.763C84.0721 133.418 84.9964 132.073 85.5116 130.583C86.0718 128.963 85.7536 127.394 85.2463 125.809C84.3159 122.902 83.1571 120.073 81.9061 117.292C80.6514 114.504 79.3008 111.761 77.9717 109.008C76.6538 106.278 75.2512 103.538 74.2515 100.669C73.2968 97.9281 72.9332 95.0857 73.6661 92.2428C74.3933 89.4222 75.9663 86.8894 77.609 84.5256C78.0423 83.9021 78.4837 83.2843 78.9184 82.6617C78.9517 82.6145 79.0228 82.6716 78.9882 82.7188C77.1779 85.1831 75.4126 87.7914 74.3512 90.6848C73.8266 92.1145 73.4868 93.6197 73.4536 95.1471C73.4194 96.6966 73.7082 98.2339 74.1607 99.7099C75.0411 102.58 76.4305 105.297 77.725 107.993C79.0485 110.749 80.4076 113.489 81.6838 116.268C82.968 119.064 84.1689 121.902 85.1559 124.82C85.5954 126.119 86.0854 127.479 86.0564 128.871C86.0245 130.395 85.3029 131.768 84.556 133.053C81.3024 138.649 77.9249 144.175 74.5057 149.669C71.0733 155.184 67.5732 160.656 64.0187 166.091C63.5704 166.777 63.1211 167.462 62.6713 168.146C62.6157 168.23 62.494 168.13 62.5492 168.045Z" fill="#263238"/>
<path d="M101.792 64.8855C103.818 69.37 114.051 75.5494 118.844 76.2135C122.292 76.6912 132.761 76.8555 136.352 76.3028C140.557 75.6552 137.344 64.2054 134.858 64.4985C128.026 65.3042 122.224 66.201 120.4 66.201C118.173 66.201 106.12 62.2995 104.668 61.7505C101.114 60.4067 100.643 62.3419 101.792 64.8855Z" fill="#EB9481"/>
<path d="M101.857 66.0724C104.421 69.8999 112.947 76.1567 112.947 76.1567L114.13 73.513L118.045 64.7739C118.045 64.7739 110.216 62.2822 105.064 61.1721C104.368 61.0215 103.755 60.9314 103.221 60.9073C99.9314 60.7284 99.6459 62.7797 101.857 66.0724Z" fill="#045531"/>
<path d="M101.857 66.0724C104.421 69.8999 112.947 76.1567 112.947 76.1567L114.13 73.513C110.951 69.7913 106.044 64.1504 103.221 60.9073C99.9314 60.7284 99.6459 62.7797 101.857 66.0724Z" fill="#263238"/>
<path d="M111.409 74.3901C112.059 72.7839 114.953 66.3034 115.672 64.9435C115.722 64.8491 115.792 64.8567 115.752 64.961C113.92 69.8183 112.189 72.8679 111.472 74.4118C111.454 74.4505 111.393 74.4307 111.409 74.3901Z" fill="#263238"/>
<path d="M133.605 64.6233C137.764 64.0729 142.908 63.1322 147.264 64.9971C148.118 65.3629 148.427 66.0053 148.427 66.0053C150.394 66.8063 150.61 67.9834 150.61 67.9834C152.216 69.2951 152.273 70.5299 152.273 70.5299C152.273 70.5299 154.572 71.4956 154.224 72.9942C153.839 74.6759 150.685 72.9904 148.389 73.1334C143.127 73.4605 135.74 75.4099 134.232 75.6563L133.605 64.6233Z" fill="#EB9481"/>
<path d="M142.637 69.5686C144.187 69.5035 145.708 69.3987 147.259 69.5455C148.961 69.7065 150.571 70.1497 152.222 70.5594C152.274 70.5721 152.297 70.5013 152.248 70.4805C149.376 69.2618 145.694 68.9418 142.633 69.4978C142.559 69.5111 142.559 69.572 142.637 69.5686Z" fill="#263238"/>
<path d="M141.979 66.3949C143.491 66.4156 146.148 66.4699 150.594 68.0322C150.609 68.0374 150.622 68.0143 150.607 68.0063C147.854 66.6049 145.031 66.1065 141.98 66.3222C141.885 66.3288 141.879 66.3934 141.979 66.3949Z" fill="#263238"/>
<path d="M141.659 64.6821C144.228 64.8166 145.832 65.2291 148.416 66.0126C148.431 66.0169 148.442 65.9928 148.427 65.9862C145.582 64.785 144.415 64.674 141.651 64.5929C141.557 64.5896 141.559 64.6769 141.659 64.6821Z" fill="#263238"/>
<path d="M142.072 73.9326C141.404 74.2489 141.564 74.6047 142.843 74.9035C144.136 75.2084 149.433 75.2901 149.247 77.1564C149.062 79.0297 141.567 78.79 139.475 78.1282C137.382 77.4712 134.23 75.6568 134.23 75.6568C135.698 75.4067 139.2 74.4594 142.072 73.9326Z" fill="#EB9481"/>
<path d="M107.361 72.034C107.329 72.8402 107.25 73.661 107.138 74.4748C107.149 74.4455 107.161 74.4167 107.172 74.3874C107.328 73.9626 107.48 73.527 107.669 73.1163C107.678 73.0946 107.716 73.1008 107.712 73.1272C107.629 73.5728 107.474 74.0202 107.306 74.4408C107.225 74.6414 107.143 74.842 107.057 75.0407C106.999 75.4032 106.935 75.7633 106.862 76.1178C106.724 76.7927 106.092 79.6639 105.948 80.1491C105.918 80.2511 105.798 80.228 105.805 80.1137C105.84 79.5851 106.37 76.595 106.477 75.9181C106.683 74.6182 106.966 73.2919 107.311 72.0218C107.319 71.9916 107.362 72.0057 107.361 72.034Z" fill="#263238"/>
<path d="M102.48 93.4913C101.232 94.1403 99.6222 95.1457 92.3687 93.7056C91.9152 93.6126 91.4594 93.5003 91.0026 93.3634C84.2002 91.3026 76.0421 83.2352 75.582 82.6665C75.582 82.6665 86.3849 64.999 100.206 59.4455C101.914 58.7592 104.742 60.0827 106.308 61.7299C106.867 62.3185 108.08 66.6534 107.614 70.1665C107.144 73.6744 103.737 92.8484 102.48 93.4913Z" fill="#045531"/>
<path d="M101.518 70.0054C101.558 70.3849 101.528 70.7544 101.482 71.1217C101.427 71.4879 101.355 71.8518 101.214 72.2058C101.174 71.8263 101.204 71.4568 101.25 71.0896C101.305 70.7233 101.377 70.3594 101.518 70.0054Z" fill="white"/>
<path d="M96.803 82.0366C96.8428 82.4161 96.8129 82.7857 96.767 83.1534C96.7123 83.5196 96.6407 83.8836 96.4993 84.2376C96.4591 83.8581 96.489 83.4885 96.5353 83.1208C96.591 82.7545 96.6622 82.3906 96.803 82.0366Z" fill="white"/>
<path d="M88.7952 72.9438C88.835 73.3233 88.8051 73.6929 88.7592 74.0601C88.7044 74.4264 88.6328 74.7903 88.4915 75.1443C88.4513 74.7648 88.4812 74.3953 88.5275 74.0276C88.5832 73.6618 88.6548 73.2978 88.7952 72.9438Z" fill="white"/>
<path d="M104.604 81.4263C104.644 81.8058 104.614 82.1753 104.568 82.5425C104.513 82.9088 104.441 83.2727 104.3 83.6267C104.26 83.2472 104.29 82.8777 104.336 82.51C104.391 82.1442 104.463 81.7803 104.604 81.4263Z" fill="white"/>
<path d="M94.3164 71.383C94.6927 71.3428 95.0591 71.373 95.4237 71.4193C95.7869 71.4745 96.1477 71.5467 96.4987 71.6893C96.1224 71.7299 95.756 71.6997 95.3914 71.6529C95.0282 71.5972 94.6679 71.525 94.3164 71.383Z" fill="white"/>
<path d="M85.2305 80.0758C85.6067 80.0357 85.9732 80.0659 86.3373 80.1122C86.7005 80.1674 87.0613 80.2396 87.4123 80.3822C87.036 80.4227 86.6696 80.3925 86.3055 80.3458C85.9418 80.2901 85.5815 80.2179 85.2305 80.0758Z" fill="white"/>
<path d="M95.9219 89.4835C96.2981 89.4434 96.6646 89.4736 97.0287 89.5199C97.3919 89.5751 97.7527 89.6473 98.1037 89.7899C97.7274 89.8305 97.361 89.8003 96.9969 89.7535C96.6337 89.6978 96.2729 89.6256 95.9219 89.4835Z" fill="white"/>
<path d="M82.4297 86.0661C82.806 86.0259 83.1724 86.0562 83.537 86.1024C83.9001 86.1576 84.261 86.2298 84.612 86.3724C84.2357 86.413 83.8693 86.3828 83.5047 86.336C83.1415 86.2799 82.7807 86.2077 82.4297 86.0661Z" fill="white"/>
<path d="M101.449 61.5495C101.825 61.5093 102.192 61.5395 102.557 61.5858C102.92 61.641 103.28 61.7132 103.631 61.8558C103.255 61.8964 102.888 61.8662 102.524 61.8194C102.161 61.7633 101.8 61.6911 101.449 61.5495Z" fill="white"/>
<path d="M98.8042 64.5605C98.566 64.857 98.2861 65.0972 97.996 65.3242C97.7007 65.5442 97.3951 65.7505 97.0469 65.8996C97.2846 65.6027 97.565 65.3625 97.8551 65.1359C98.1504 64.9164 98.4565 64.7102 98.8042 64.5605Z" fill="white"/>
<path d="M84.3941 73.1157C84.1558 73.4121 83.876 73.6524 83.5858 73.8794C83.2905 74.0994 82.9849 74.3056 82.6367 74.4553C82.8745 74.1584 83.1548 73.9181 83.4449 73.6916C83.7407 73.4716 84.0463 73.2658 84.3941 73.1157Z" fill="white"/>
<path d="M102.386 76.98C102.148 77.2764 101.868 77.5166 101.578 77.7437C101.283 77.9636 100.977 78.1699 100.629 78.319C100.867 78.0222 101.147 77.7819 101.437 77.5554C101.733 77.3363 102.039 77.1301 102.386 76.98Z" fill="white"/>
<path d="M90.7339 84.3799C90.4957 84.6763 90.2158 84.9165 89.9257 85.1436C89.6304 85.3635 89.3248 85.5698 88.9766 85.7189C89.2143 85.4221 89.4946 85.1818 89.7848 84.9552C90.0801 84.7362 90.3857 84.53 90.7339 84.3799Z" fill="white"/>
<path d="M106.852 66.8677C106.613 67.1641 106.333 67.4043 106.043 67.6314C105.748 67.8513 105.442 68.0576 105.094 68.2067C105.331 67.9098 105.612 67.6696 105.902 67.443C106.198 67.2236 106.504 67.0173 106.852 66.8677Z" fill="white"/>
<path d="M106.609 75.4452C106.315 75.205 106.077 74.9227 105.852 74.6301C105.634 74.3322 105.429 74.024 105.281 73.6729C105.576 73.9126 105.814 74.1954 106.038 74.488C106.256 74.7863 106.46 75.0945 106.609 75.4452Z" fill="white"/>
<path d="M80.6363 81.3524C80.3424 81.1122 80.1042 80.8299 79.8791 80.5373C79.661 80.2395 79.4565 79.9312 79.3086 79.5801C79.603 79.8199 79.8412 80.1026 80.0658 80.3952C80.2834 80.693 80.4879 81.0013 80.6363 81.3524Z" fill="white"/>
<path d="M103.449 88.3842C103.155 88.1439 102.917 87.8617 102.692 87.569C102.474 87.2712 102.269 86.963 102.121 86.6118C102.415 86.8516 102.654 87.1343 102.878 87.427C103.096 87.7248 103.3 88.0335 103.449 88.3842Z" fill="white"/>
<path d="M92.0152 68.3466C91.7213 68.1063 91.4831 67.8241 91.258 67.5314C91.0399 67.2336 90.8354 66.9254 90.6875 66.5742C90.9819 66.814 91.2201 67.0967 91.4447 67.3894C91.6623 67.6872 91.8669 67.9954 92.0152 68.3466Z" fill="white"/>
<path d="M92.2183 92.3851C91.9244 92.1449 91.6862 91.8626 91.4611 91.57C91.243 91.2722 91.0385 90.964 90.8906 90.6128C91.185 90.8526 91.4232 91.1353 91.6478 91.4279C91.865 91.7258 92.0695 92.034 92.2183 92.3851Z" fill="white"/>
<path d="M94.1636 78.205C93.8697 77.9647 93.6315 77.6825 93.4064 77.3898C93.1883 77.092 92.9838 76.7838 92.8359 76.4326C93.1303 76.6724 93.3685 76.9551 93.5932 77.2478C93.8108 77.5456 94.0153 77.8538 94.1636 78.205Z" fill="white"/>
<path d="M103.767 66.4332C102.006 66.1028 100.346 62.4264 100.137 59.9531C100.123 59.7836 100.962 58.437 101.903 56.752C102.47 55.7273 103.078 54.5728 103.557 53.4791C103.654 53.254 104.231 54.0045 104.231 54.0045L105.485 54.9716L109.629 58.1765C109.629 58.1765 107.956 60.1716 107.133 62.0837C107.066 62.2442 107.016 62.3995 106.983 62.5533C106.976 62.5751 106.971 62.6024 106.96 62.6322C106.724 63.5464 105.469 66.7513 103.767 66.4332Z" fill="#EB9481"/>
<path d="M106.982 62.5536C106.975 62.5753 106.97 62.6027 106.959 62.6324C106.733 62.5683 106.496 62.4772 106.244 62.3582C101.708 60.2144 103.709 54.0859 103.709 54.0859L105.485 54.9719L109.629 58.1768C109.629 58.1768 107.956 60.1719 107.132 62.084C107.065 62.2445 107.016 62.3998 106.982 62.5536Z" fill="#263238"/>
<path d="M114.387 45.1143C114.387 45.1143 116.459 46.4415 116.472 48.8006C116.486 51.1601 115.554 53.4682 115.338 53.5508C115.121 53.6334 114.387 45.1143 114.387 45.1143Z" fill="#263238"/>
<path d="M104.101 46.3383C102.855 48.8187 102.918 56.6284 104.474 58.641C106.729 61.5585 111.074 62.5638 113.696 59.6794C116.239 56.8833 115.978 46.707 114.179 44.8105C111.531 42.0172 105.942 42.6747 104.101 46.3383Z" fill="#EB9481"/>
<path d="M110.709 52.5958C110.705 52.5756 110.669 52.6218 110.67 52.644C110.699 53.1759 110.643 53.79 110.17 53.9779C110.155 53.9835 110.157 54.0104 110.175 54.0076C110.755 53.9108 110.821 53.0948 110.709 52.5958Z" fill="#263238"/>
<path d="M110.226 52.0507C109.376 52.0054 109.349 53.7239 110.137 53.7659C110.912 53.807 110.939 52.0884 110.226 52.0507Z" fill="#263238"/>
<path d="M113.597 52.5758C113.601 52.5555 113.638 52.6018 113.637 52.6235C113.612 53.1554 113.672 53.769 114.147 53.9536C114.162 53.9593 114.159 53.9862 114.142 53.9833C113.561 53.8908 113.489 53.0757 113.597 52.5758Z" fill="#263238"/>
<path d="M114.078 52.0275C114.928 51.9761 114.968 53.6941 114.181 53.7418C113.405 53.789 113.366 52.0705 114.078 52.0275Z" fill="#263238"/>
<path d="M109.692 50.7426C109.926 50.6874 110.131 50.5972 110.356 50.5189C110.61 50.4301 110.821 50.3858 110.99 50.1606C111.08 50.0398 111.047 49.8198 110.939 49.7198C110.687 49.4875 110.35 49.5182 110.04 49.6126C109.704 49.715 109.471 49.8803 109.275 50.1729C109.084 50.4566 109.385 50.8153 109.692 50.7426Z" fill="#263238"/>
<path d="M114.669 51.5045C114.434 51.462 114.223 51.3832 113.995 51.3166C113.737 51.2416 113.524 51.2085 113.343 50.9924C113.246 50.8763 113.268 50.6549 113.371 50.5496C113.61 50.3042 113.949 50.3169 114.263 50.3943C114.604 50.4784 114.846 50.6313 115.057 50.9131C115.262 51.1859 114.98 51.5607 114.669 51.5045Z" fill="#263238"/>
<path d="M109.509 57.6389C109.633 57.7654 109.757 57.9391 109.948 57.9584C110.131 57.9768 110.348 57.8966 110.518 57.8333C110.534 57.8272 110.551 57.8451 110.54 57.8612C110.4 58.0632 110.109 58.1864 109.866 58.1397C109.627 58.0939 109.513 57.8838 109.458 57.6625C109.45 57.6313 109.491 57.6205 109.509 57.6389Z" fill="#263238"/>
<path d="M112.572 55.3635C112.572 55.3635 112.594 56.1603 112.555 56.5303C112.551 56.5648 111.516 56.3604 110.4 56.6082C110.233 56.6455 110.249 56.5081 110.442 56.4184C110.828 56.2386 111.319 56.0701 112.273 56.1735C112.31 56.0739 112.216 54.9477 112.275 54.9496C112.477 54.9543 112.858 55.1355 113.088 55.2318C113.089 53.5709 112.826 51.9236 112.851 50.2697C112.853 50.2107 112.938 50.2022 112.95 50.2565C113.346 51.9637 113.387 53.8748 113.43 55.5901C113.438 55.8039 112.712 55.4428 112.572 55.3635Z" fill="#263238"/>
<path d="M111.522 56.2473C111.522 56.2473 111.154 57.1809 110.539 57.4315C109.832 57.7204 109.589 57.0742 110.311 56.5035C110.69 56.2043 111.522 56.2473 111.522 56.2473Z" fill="#263238"/>
<path d="M110.783 57.286C110.704 57.3473 110.624 57.3992 110.535 57.4323C109.885 57.6966 109.627 57.1727 110.152 56.644C110.508 56.6724 110.896 56.8045 110.783 57.286Z" fill="#FF99BA"/>
<path d="M103.744 53.0202C104.599 53.285 105.584 50.6895 105.862 49.6917C106.108 48.8123 106.391 46.0223 106.432 45.8321C106.474 45.6419 110.163 48.3007 112.32 47.6649C114.477 47.0291 115.919 45.0769 115.949 44.1655C115.978 43.2545 113.3 40.9413 110.983 40.8228C108.665 40.7043 105.528 43.6751 105.528 43.6751C105.528 43.6751 106.594 42.3917 106.558 42.2865C106.522 42.1812 105.024 42.7844 104.749 43.8601C104.749 43.8601 105.045 42.5097 104.932 42.4847C104.819 42.4597 103.655 43.6161 103.918 44.4926C103.918 44.4926 102.572 45.6683 102.447 46.9574C102.322 48.2469 102.738 52.7092 103.744 53.0202Z" fill="#263238"/>
<path d="M113.853 47.2108C113.198 47.5152 112.541 47.8499 111.816 47.9462C111.032 48.0505 110.219 47.8522 109.49 47.57C108.744 47.282 108.066 46.8639 107.451 46.3527C106.911 45.9048 106.433 45.3643 105.857 44.9655C105.712 44.8659 105.545 45.075 105.634 45.209C106.509 46.5325 108.057 47.6375 109.548 48.1147C111.117 48.6164 112.592 48.2633 113.862 47.2282C113.869 47.2216 113.864 47.2056 113.853 47.2108Z" fill="#263238"/>
<path d="M104.639 52.7891C104.639 52.7891 103.311 50.0694 102.113 50.5103C100.915 50.9511 101.652 54.7092 102.875 55.3973C104.098 56.0855 104.751 54.9565 104.751 54.9565L104.639 52.7891Z" fill="#EB9481"/>
<path d="M102.349 51.5827C102.329 51.5775 102.32 51.6063 102.337 51.6166C103.19 52.1292 103.539 53.0539 103.74 53.988C103.521 53.6066 103.181 53.3635 102.681 53.6184C102.654 53.6316 102.671 53.6727 102.698 53.6712C103.083 53.6486 103.341 53.7553 103.547 54.0951C103.693 54.3358 103.774 54.6242 103.864 54.89C103.894 54.9787 104.047 54.9574 104.031 54.8583C104.029 54.8508 104.028 54.8432 104.027 54.8357C104.228 53.6694 103.576 51.8932 102.349 51.5827Z" fill="#263238"/>
<path d="M95.8632 64.9276C94.9483 70.2744 100.672 88.2916 104.358 91.657C109.839 96.6616 119.972 99.9524 123.644 101.023C125.244 101.49 129.672 90.132 128.053 89.3838C124.585 87.7819 113.812 84.3929 112.798 83.5225C111.784 82.6522 105.593 73.6691 102.841 68.4884C99.1486 61.5373 96.3261 62.2231 95.8632 64.9276Z" fill="#EB9481"/>
<path d="M125.327 88.3848C125.327 88.3848 130.106 89.6129 133.194 90.5645C134.916 91.095 137.789 92.2707 138.877 93.2445C140.506 94.7011 146.393 101.841 144.708 103.318C143.182 104.656 138.896 97.8734 138.896 97.8734C138.896 97.8734 143.82 104.331 141.69 105.6C139.559 106.87 135.726 98.5573 135.726 98.5573C135.726 98.5573 140.639 105.307 138.236 106.266C136.42 106.99 132.529 99.6585 132.529 99.6585C132.529 99.6585 136.711 105.49 134.876 106.316C132.848 107.228 128.835 100.688 128.835 100.688C123.819 101.995 120.9 100.549 118.945 99.27C118.472 98.9595 125.327 88.3848 125.327 88.3848Z" fill="#EB9481"/>
<path d="M137.334 95.5292C137.94 96.2665 138.558 97.009 139.097 97.7982C139.636 98.5873 140.148 99.3963 140.611 100.233C141.747 102.284 142.141 103.748 142.107 103.66C141.301 101.585 139.416 98.7294 138.877 97.9397C138.34 97.152 137.842 96.3373 137.304 95.5486C137.29 95.5288 137.32 95.5118 137.334 95.5292Z" fill="#263238"/>
<path d="M134.473 97.4391C135.511 98.2688 137.688 101.359 138.528 103.429C138.563 103.516 138.517 103.509 138.466 103.43C137.808 102.407 135.151 98.4411 134.448 97.4551C134.438 97.4395 134.459 97.4277 134.473 97.4391Z" fill="#263238"/>
<path d="M131.727 98.6333C132.928 99.8331 133.937 101.471 134.731 103.364C134.767 103.45 134.699 103.436 134.65 103.356C133.681 101.764 132.931 100.509 131.677 98.6753C131.657 98.6465 131.699 98.6054 131.727 98.6333Z" fill="#263238"/>
<path d="M101.072 65.3206C96.799 59.2252 94.2456 61.4846 95.1025 68.1007C95.9037 74.2881 98.0542 81.6593 98.0542 81.6593L108.837 76.3918C108.837 76.3918 103.807 69.2217 101.072 65.3206Z" fill="#045531"/>
<path d="M103.684 67.7173C103.837 68.0666 103.92 68.4276 103.987 68.7916C104.046 69.1574 104.088 69.5255 104.06 69.9064C103.907 69.5571 103.823 69.1961 103.757 68.8321C103.699 68.4659 103.657 68.0977 103.684 67.7173Z" fill="white"/>
<path d="M97.3047 71.4229C97.651 71.269 98.009 71.185 98.3699 71.117C98.7326 71.058 99.0976 71.0156 99.4753 71.0434C99.129 71.1978 98.7709 71.2822 98.4101 71.3493C98.0474 71.4078 97.6819 71.4498 97.3047 71.4229Z" fill="white"/>
<path d="M97.5812 61.9448C97.4441 62.3007 97.2504 62.6155 97.0426 62.9209C96.8278 63.2211 96.5989 63.5119 96.3125 63.7611C96.4492 63.4052 96.6434 63.0899 96.8512 62.785C97.0664 62.4848 97.2953 62.1945 97.5812 61.9448Z" fill="white"/>
<path d="M106.678 74.2695C106.541 74.6249 106.348 74.9402 106.14 75.2456C105.925 75.5458 105.697 75.8366 105.41 76.0858C105.547 75.7299 105.741 75.4146 105.949 75.1097C106.164 74.81 106.393 74.5192 106.678 74.2695Z" fill="white"/>
<path d="M99.2188 77.9666C98.866 77.8283 98.5538 77.6329 98.251 77.4234C97.9534 77.2067 97.6651 76.9759 97.418 76.6875C97.7708 76.8253 98.083 77.0207 98.3858 77.2308C98.6834 77.4474 98.9713 77.6782 99.2188 77.9666Z" fill="white"/>
<path d="M102.507 67.1554C103.081 67.9516 103.676 68.7323 104.268 69.5144C104.118 69.1189 103.988 68.7191 103.872 68.3108C103.867 68.292 103.894 68.2839 103.901 68.3019C104.02 68.6148 104.153 68.9235 104.268 69.2383C104.323 69.3898 104.379 69.5404 104.437 69.691C104.45 69.7235 104.462 69.7556 104.475 69.7877C104.936 70.398 105.395 71.0097 105.839 71.6323C106.368 72.3757 106.879 73.1318 107.392 73.8866C107.923 74.6663 108.426 75.5806 108.986 76.3386C109.035 76.4042 108.032 76.813 107.938 76.8654C107.842 76.9192 107.777 76.8252 107.879 76.7941C107.973 76.7653 108.767 76.273 108.777 76.2631C108.264 75.5022 107.668 74.7985 107.131 74.0546C106.596 73.314 106.06 72.5754 105.541 71.8235C104.488 70.2961 103.521 68.7092 102.476 67.1752C102.462 67.1559 102.493 67.136 102.507 67.1554Z" fill="#263238"/>
<path d="M95.3667 72.4781C95.5305 72.8 95.707 73.1186 95.852 73.4495C95.9119 73.5864 95.9709 73.7232 96.0308 73.8601C95.7851 72.682 95.5441 71.5029 95.3049 70.3229C95.3021 70.3093 95.3227 70.3022 95.3265 70.3163C95.8207 72.2265 96.32 74.1348 96.7787 76.054C97.2163 77.8834 97.7446 79.7356 97.995 81.6023C98.1443 81.5528 98.9834 81.2025 99.0078 81.2573C99.0321 81.3125 97.9108 81.8449 97.8958 81.8006C97.2855 79.9763 96.9074 77.9042 96.4923 76.0266C96.3753 75.498 96.2662 74.9679 96.1544 74.4378C96.0327 74.1188 95.8853 73.8115 95.7416 73.5014C95.5895 73.1734 95.4669 72.8297 95.3335 72.4937C95.3255 72.4743 95.3569 72.4592 95.3667 72.4781Z" fill="#263238"/>
<path d="M98.2231 79.8405C99.7212 78.9886 105.98 75.7209 107.38 75.1049C107.477 75.062 107.528 75.1125 107.433 75.1696C103.006 77.8298 99.7713 79.1353 98.2587 79.8976C98.2213 79.9165 98.1852 79.8622 98.2231 79.8405Z" fill="#263238"/>
<path d="M269.715 203.928H127.125L147.743 85.9985H290.333L269.715 203.928Z" fill="#C9E7DF"/>
<path d="M196.543 73.7856H149.877L147.742 85.9986H197.683L196.543 73.7856Z" fill="#C9E7DF"/>
<g opacity="0.1">
<path d="M269.715 203.928H127.125L147.743 85.9985H290.333L269.715 203.928Z" fill="black"/>
<path d="M196.543 73.7856H149.877L147.742 85.9986H197.683L196.543 73.7856Z" fill="black"/>
</g>
<path d="M144.843 78.7675C144.659 78.0831 144.617 77.3982 144.609 76.7138C144.616 76.029 144.658 75.3446 144.843 74.6602C145.029 75.3446 145.07 76.0294 145.077 76.7138C145.069 77.3987 145.028 78.0831 144.843 78.7675Z" fill="#263238"/>
<path d="M140.696 79.9774C140.197 79.4776 139.822 78.9055 139.476 78.3169C139.142 77.7208 138.839 77.1067 138.66 76.4204C139.16 76.9198 139.536 77.4919 139.881 78.0809C140.213 78.6775 140.517 79.2916 140.696 79.9774Z" fill="#263238"/>
<path d="M137.707 83.1157C137.027 82.9344 136.418 82.6286 135.826 82.293C135.242 81.9447 134.674 81.5661 134.18 81.062C134.86 81.2423 135.469 81.5482 136.06 81.8847C136.644 82.234 137.211 82.6121 137.707 83.1157Z" fill="#263238"/>
<path d="M136.67 87.3424C135.992 87.5284 135.313 87.5704 134.634 87.5784C133.955 87.5714 133.276 87.5298 132.598 87.3424C133.276 87.1555 133.955 87.1135 134.634 87.1064C135.313 87.1145 135.991 87.1565 136.67 87.3424Z" fill="#263238"/>
<path d="M137.871 91.5249C137.375 92.0285 136.808 92.4071 136.224 92.7559C135.633 93.0924 135.024 93.3983 134.344 93.5786C134.839 93.0745 135.406 92.6959 135.99 92.3476C136.582 92.012 137.191 91.7057 137.871 91.5249Z" fill="#263238"/>
<path d="M140.982 94.5415C140.802 95.2273 140.499 95.8414 140.166 96.438C139.82 97.0275 139.445 97.5996 138.945 98.0985C139.124 97.4122 139.427 96.7981 139.761 96.202C140.107 95.6134 140.482 95.0414 140.982 94.5415Z" fill="#263238"/>
<path d="M145.172 95.5854C145.356 96.2703 145.398 96.9547 145.406 97.6391C145.398 98.3235 145.357 99.0084 145.172 99.6928C144.986 99.0084 144.945 98.3235 144.938 97.6391C144.945 96.9547 144.987 96.2703 145.172 95.5854Z" fill="#263238"/>
<path d="M149.32 94.376C149.82 94.8758 150.195 95.4479 150.541 96.0365C150.875 96.6326 151.178 97.2467 151.357 97.933C150.856 97.4336 150.481 96.8615 150.136 96.2725C149.803 95.6754 149.5 95.0618 149.32 94.376Z" fill="#263238"/>
<path d="M152.309 91.2373C152.989 91.4186 153.597 91.7244 154.189 92.06C154.774 92.4083 155.341 92.7869 155.835 93.291C155.155 93.1107 154.546 92.8048 153.955 92.4683C153.371 92.1195 152.804 91.7409 152.309 91.2373Z" fill="#263238"/>
<path d="M153.344 87.0104C154.022 86.8244 154.701 86.7824 155.38 86.7744C156.059 86.7815 156.738 86.823 157.416 87.0104C156.737 87.1973 156.059 87.2393 155.38 87.2464C154.701 87.2384 154.022 87.1969 153.344 87.0104Z" fill="#263238"/>
<path d="M152.145 82.8286C152.64 82.3249 153.207 81.9464 153.791 81.5976C154.382 81.2615 154.991 80.9552 155.671 80.7749C155.176 81.279 154.609 81.6575 154.025 82.0059C153.433 82.3415 152.825 82.6473 152.145 82.8286Z" fill="#263238"/>
<path d="M149.035 79.8114C149.215 79.1256 149.518 78.5115 149.851 77.9149C150.196 77.3254 150.572 76.7533 151.071 76.2544C150.893 76.9407 150.589 77.5548 150.256 78.1509C149.909 78.7395 149.534 79.3115 149.035 79.8114Z" fill="#263238"/>
<path d="M269.505 203.928H126.609L106.32 90.2798H249.217L269.505 203.928Z" fill="#C9E7DF"/>
<path d="M155.838 159.754C159.118 159.754 161.777 157.072 161.777 153.764C161.777 150.456 159.118 147.774 155.838 147.774C152.558 147.774 149.898 150.456 149.898 153.764C149.898 157.072 152.558 159.754 155.838 159.754Z" fill="#045531"/>
<path d="M202.791 159.754C206.071 159.754 208.73 157.072 208.73 153.764C208.73 150.456 206.071 147.774 202.791 147.774C199.511 147.774 196.852 150.456 196.852 153.764C196.852 157.072 199.511 159.754 202.791 159.754Z" fill="#045531"/>
<path d="M187.845 160.711L187.519 160.083C187.489 160.027 184.421 154.307 178.247 154.307C172.617 154.307 171.244 159.693 171.189 159.922L171.022 160.608L169.66 160.276L169.824 159.589C169.84 159.522 171.497 152.891 178.247 152.891C185.285 152.891 188.624 159.159 188.763 159.426L189.089 160.053L187.845 160.711Z" fill="#045531"/>
<path d="M260.023 153.077C260.328 153.01 260.632 152.938 260.935 152.86" stroke="#263238" stroke-miterlimit="10"/>
<path d="M262.73 152.323C269.888 149.886 275.883 144.206 276.447 137.571C277.691 122.939 260.022 114.856 261.847 97.9481C263.588 81.8194 280.362 80.6687 287.086 82.8979C294.513 85.3603 291.969 92.5597 285.244 91.6309C273.587 90.0204 266.259 77.2382 271.796 62.7383C275.932 51.9054 286.244 47.8198 290.433 46.5737" stroke="#263238" stroke-miterlimit="10" stroke-dasharray="4 4"/>
<path d="M291.336 46.3217C291.916 46.1712 292.246 46.1084 292.246 46.1084" stroke="#263238" stroke-miterlimit="10"/>
<path d="M299.668 43.5015C298.474 39.7709 290.48 41.1113 292.041 45.9852C293.601 50.8595 300.862 47.2322 299.668 43.5015Z" fill="#263238"/>
<path d="M287.693 41.9971C287.752 40.3611 290.009 39.1023 293.199 39.6829C296.389 40.2639 299.394 42.4308 299.394 42.4308C299.394 42.4308 296.239 44.3769 293.016 44.72C289.792 45.0637 287.633 43.6411 287.693 41.9971Z" fill="#EBEBEB"/>
<path d="M299.395 42.4309C297.739 42.4422 296.085 42.3865 294.431 42.3356C292.777 42.2643 291.124 42.1982 289.473 42.0632C291.129 42.0509 292.783 42.1076 294.437 42.1586C296.091 42.2303 297.744 42.2969 299.395 42.4309Z" fill="#263238"/>
<path d="M290.902 40.5483C291.382 40.7645 291.825 41.0387 292.271 41.3078C292.706 41.5948 293.145 41.877 293.547 42.2173C293.067 42.0016 292.624 41.7274 292.178 41.4574C291.742 41.1709 291.305 40.8887 290.902 40.5483Z" fill="#263238"/>
<path d="M295.236 42.2769C294.816 42.636 294.361 42.9377 293.908 43.244C293.443 43.5328 292.982 43.8269 292.484 44.0624C292.904 43.7032 293.36 43.4012 293.813 43.0953C294.276 42.8064 294.738 42.5133 295.236 42.2769Z" fill="#263238"/>
<path d="M295.719 41.3555C295.966 41.4626 296.171 41.6226 296.379 41.7789C296.574 41.9507 296.773 42.1182 296.929 42.3396C296.681 42.2329 296.476 42.0724 296.269 41.9162C296.073 41.7439 295.875 41.5759 295.719 41.3555Z" fill="#263238"/>
<path d="M290.731 51.7078C291.728 52.9997 294.289 52.6896 296.54 50.3371C298.79 47.9842 299.971 44.4546 299.971 44.4546C299.971 44.4546 296.284 44.7364 293.47 46.3596C290.656 47.9823 289.729 50.4098 290.731 51.7078Z" fill="#EBEBEB"/>
<path d="M299.972 44.4536C298.622 45.4212 297.313 46.4422 296.001 47.4593C294.701 48.4925 293.398 49.5215 292.137 50.6042C293.487 49.6371 294.796 48.6157 296.108 47.5986C297.408 46.5653 298.711 45.5364 299.972 44.4536Z" fill="#263238"/>
<path d="M294.172 50.9908C294.435 50.5325 294.636 50.0492 294.842 49.5673C295.028 49.0778 295.22 48.5902 295.349 48.0771C295.085 48.535 294.885 49.0188 294.679 49.5007C294.492 49.9902 294.301 50.4777 294.172 50.9908Z" fill="#263238"/>
<path d="M296.689 47.0316C296.141 46.9877 295.596 47.0118 295.051 47.0302C294.507 47.0694 293.962 47.1034 293.422 47.2058C293.97 47.2502 294.515 47.2261 295.06 47.2072C295.604 47.1676 296.148 47.1331 296.689 47.0316Z" fill="#263238"/>
<path d="M297.613 47.4947C297.751 47.262 297.825 47.0114 297.903 46.7622C297.962 46.5073 298.026 46.2543 298.024 45.9829C297.885 46.2156 297.812 46.4662 297.734 46.7155C297.676 46.9703 297.612 47.2238 297.613 47.4947Z" fill="#263238"/>
<path d="M299.665 43.5014C298.928 43.7412 298.138 43.3334 297.9 42.59C297.662 41.8466 298.067 41.0499 298.803 40.8096C299.54 40.5694 300.331 40.9776 300.569 41.721C300.807 42.4644 300.403 43.2617 299.665 43.5014Z" fill="#455A64"/>
<path d="M300.529 46.1931C299.792 46.4329 299.002 46.0251 298.764 45.2817C298.525 44.5383 298.93 43.7416 299.667 43.5013C300.404 43.2616 301.194 43.6694 301.433 44.4128C301.67 45.1557 301.266 45.9529 300.529 46.1931Z" fill="#455A64"/>
<path d="M147.101 44.9915C146.431 51.4527 140.692 56.1448 134.286 55.4689C131.697 55.1956 129.395 54.0874 127.613 52.4321L121.777 53.2958L124.697 48.2077C123.989 46.4693 123.691 44.5346 123.897 42.5432C124.567 36.082 130.307 31.3898 136.713 32.0657C143.119 32.7416 147.771 38.5302 147.101 44.9915Z" fill="white"/>
<path d="M147.099 44.9915C146.856 47.1391 146.077 49.2442 144.745 50.9547C144.439 51.4026 144.045 51.7769 143.688 52.1824C143.283 52.5383 142.905 52.9291 142.457 53.2335C141.604 53.8962 140.645 54.4159 139.644 54.8138C138.646 55.2372 137.573 55.4392 136.503 55.569C135.964 55.5983 135.423 55.6478 134.883 55.6001C134.341 55.5879 133.802 55.5293 133.269 55.4307C131.134 55.0408 129.112 54.0331 127.498 52.5572L127.636 52.6001L121.806 53.5026L121.383 53.5682L121.597 53.192L124.5 48.0939L124.486 48.295C123.072 44.9372 123.391 40.9384 125.204 37.8095C126.109 36.243 127.369 34.893 128.858 33.8863C130.345 32.8766 132.07 32.2437 133.836 32.0025C135.603 31.766 137.423 31.9284 139.111 32.4939C140.796 33.0664 142.342 34.0293 143.609 35.2758C146.184 37.7449 147.478 41.4491 147.099 44.9915ZM147.099 44.9915C147.454 41.4463 146.134 37.7647 143.558 35.3287C142.279 34.1105 140.73 33.1877 139.059 32.652C137.386 32.1238 135.596 31.9978 133.871 32.2597C132.149 32.5264 130.48 33.1735 129.054 34.1789C127.631 35.1866 126.431 36.5044 125.564 38.0181C124.68 39.5285 124.222 41.2589 124.084 42.9959C123.975 44.7385 124.256 46.5023 124.905 48.1208L124.947 48.2261L124.891 48.3224L121.954 53.4002L121.746 53.0896L127.587 52.2645L127.667 52.2532L127.725 52.3075C129.269 53.7693 131.223 54.7897 133.31 55.2093C133.832 55.3155 134.36 55.3821 134.893 55.4033C135.424 55.46 135.956 55.4203 136.489 55.401C137.545 55.2915 138.61 55.1112 139.604 54.709C140.603 54.3319 141.568 53.8377 142.418 53.1797C142.865 52.88 143.244 52.4944 143.65 52.1427C144.008 51.742 144.403 51.372 144.711 50.9278C146.049 49.2324 146.841 47.1377 147.099 44.9915Z" fill="#045531"/>
<path d="M129.793 49.2526C129.793 48.5503 130.276 48.0429 130.934 48.0429C131.63 48.0429 132.075 48.5503 132.075 49.2526C132.075 49.9356 131.63 50.4619 130.934 50.4619C130.257 50.4619 129.793 49.9351 129.793 49.2526ZM130.276 46.4626L130.005 37.0986H131.862L131.591 46.4626H130.276Z" fill="#045531"/>
<path d="M134.242 49.2526C134.242 48.5503 134.726 48.0429 135.384 48.0429C136.08 48.0429 136.525 48.5503 136.525 49.2526C136.525 49.9356 136.08 50.4619 135.384 50.4619C134.706 50.4619 134.242 49.9351 134.242 49.2526ZM134.726 46.4626L134.455 37.0986H136.312L136.042 46.4626H134.726Z" fill="#045531"/>
<path d="M138.691 49.2526C138.691 48.5503 139.175 48.0429 139.833 48.0429C140.529 48.0429 140.974 48.5503 140.974 49.2526C140.974 49.9356 140.529 50.4619 139.833 50.4619C139.156 50.4619 138.691 49.9351 138.691 49.2526ZM139.175 46.4626L138.904 37.0986H140.761L140.491 46.4626H139.175Z" fill="#045531"/>
</svg>
