<svg width="72" height="72" viewBox="0 0 72 72" fill="none" xmlns="http://www.w3.org/2000/svg">
<g clip-path="url(#clip0_56567_3927)">
<path d="M14.56 5.30859L17.1846 7.23642C17.3475 7.35601 17.5412 7.42632 17.7428 7.43898C17.9445 7.45165 18.1455 7.40613 18.322 7.30786C19.1888 6.82601 20.1081 6.44542 21.0618 6.17358C21.256 6.11816 21.4302 6.00818 21.5637 5.8567C21.6972 5.70522 21.7844 5.51859 21.815 5.319L22.3063 2.10937H26.9614L27.4526 5.31886C27.4832 5.51845 27.5705 5.70507 27.704 5.85656C27.8375 6.00804 28.0117 6.11802 28.2058 6.17344C29.1596 6.44523 30.0789 6.82582 30.9456 7.30772C31.1221 7.40603 31.3232 7.45156 31.5248 7.4389C31.7264 7.42623 31.9202 7.3559 32.083 7.23628L34.6995 5.31436L37.9912 8.60625L36.0694 11.2227C35.9499 11.3855 35.8795 11.5793 35.8669 11.7809C35.8542 11.9826 35.8997 12.1836 35.998 12.3601C36.4799 13.2268 36.8604 14.1461 37.1323 15.0997C37.1877 15.2939 37.2977 15.4681 37.4491 15.6016C37.6006 15.7352 37.7873 15.8224 37.9869 15.8529L41.1252 16.3333C41.3999 16.3717 41.6787 16.3004 41.9012 16.1348C42.1237 15.9691 42.272 15.7225 42.314 15.4483C42.356 15.1741 42.2883 14.8944 42.1255 14.6697C41.9628 14.4451 41.7181 14.2936 41.4444 14.2481L38.9582 13.8676C38.737 13.2072 38.4703 12.563 38.16 11.9395L40.2272 9.12487C40.3763 8.92174 40.4478 8.6719 40.4287 8.4206C40.4096 8.16929 40.3011 7.93314 40.123 7.75491L35.5507 3.18248C35.3725 3.00424 35.1363 2.89572 34.8849 2.87657C34.6336 2.85743 34.3837 2.92894 34.1806 3.07814L31.366 5.14547C30.7424 4.83518 30.0981 4.56848 29.4377 4.34728L28.9092 0.894797C28.8711 0.645692 28.745 0.418482 28.5538 0.254333C28.3626 0.0901848 28.1189 -4.23707e-05 27.8669 1.49267e-08H21.4009C21.1488 -1.2726e-05 20.905 0.0902544 20.7138 0.25445C20.5225 0.418646 20.3964 0.645911 20.3583 0.895078L19.8298 4.34756C19.1694 4.56876 18.5251 4.83546 17.9015 5.14575L15.0869 3.07842C14.8838 2.92916 14.6339 2.85762 14.3825 2.87677C14.1312 2.89591 13.895 3.00447 13.7168 3.18277L13.1784 3.72136C13.0804 3.81928 13.0027 3.93555 12.9497 4.06351C12.8967 4.19147 12.8694 4.32862 12.8695 4.46712C12.8695 4.60563 12.8968 4.74277 12.9498 4.87072C13.0028 4.99867 13.0805 5.11492 13.1785 5.21283C13.3584 5.3929 13.5974 5.50178 13.8513 5.51939C14.1053 5.53699 14.357 5.46212 14.56 5.30859ZM14.463 34.4701C14.6875 34.4703 14.9062 34.3986 15.0871 34.2655L15.9726 33.6151C16.0842 33.5332 16.1786 33.43 16.2504 33.3116C16.3222 33.1931 16.3699 33.0617 16.3909 32.9247C16.4118 32.7878 16.4056 32.6481 16.3726 32.5136C16.3395 32.3791 16.2803 32.2524 16.1983 32.1408C16.1163 32.0292 16.0132 31.9347 15.8947 31.863C15.7763 31.7912 15.6448 31.7434 15.5079 31.7225C15.371 31.7015 15.2313 31.7077 15.0968 31.7408C14.9623 31.7739 14.8356 31.8331 14.724 31.9151L14.5683 32.0294L11.2767 28.7377L13.1985 26.1214C13.3181 25.9586 13.3884 25.7649 13.4011 25.5633C13.4138 25.3617 13.3683 25.1606 13.2701 24.9841C12.7881 24.1173 12.4075 23.198 12.1356 22.2442C12.0802 22.05 11.9702 21.8758 11.8188 21.7423C11.6673 21.6088 11.4806 21.5216 11.2811 21.491L8.07157 20.9998V16.3446L11.2811 15.8534C11.4807 15.8228 11.6673 15.7356 11.8188 15.6021C11.9703 15.4685 12.0802 15.2943 12.1356 15.1002C12.4075 14.1464 12.7881 13.2271 13.2701 12.3604C13.3683 12.1839 13.4138 11.9829 13.4011 11.7813C13.3884 11.5797 13.3181 11.3859 13.1985 11.2231L11.2766 8.60625L11.5412 8.34173C11.739 8.14393 11.8501 7.87566 11.8501 7.59593C11.8501 7.3162 11.739 7.04792 11.5412 6.85012C11.3434 6.65232 11.0751 6.5412 10.7954 6.5412C10.5157 6.5412 10.2474 6.65232 10.0496 6.85012L9.14468 7.75505C8.96645 7.93329 8.85796 8.16947 8.83884 8.4208C8.81973 8.67214 8.89126 8.92201 9.04048 9.12516L11.1077 11.9398C10.7974 12.5633 10.5307 13.2075 10.3095 13.8679L6.85699 14.3963C6.60782 14.4345 6.38056 14.5606 6.21636 14.7519C6.05217 14.9431 5.9619 15.1869 5.96191 15.4389V21.9052C5.9619 22.1572 6.05217 22.401 6.21636 22.5922C6.38056 22.7835 6.60782 22.9096 6.85699 22.9477L10.3095 23.4762C10.5307 24.1366 10.7974 24.7808 11.1077 25.4043L9.04048 28.2189C8.8913 28.4221 8.81979 28.6719 8.8389 28.9232C8.85802 29.1745 8.96649 29.4107 9.14468 29.5889L13.717 34.1613C13.8149 34.2593 13.9312 34.3371 14.0592 34.3901C14.1872 34.443 14.3244 34.4703 14.463 34.4701Z" fill="#045531"/>
<path d="M24.6339 12.1948C26.6243 12.1948 28.4758 13.0909 29.7139 14.6531C29.8876 14.8723 30.1413 15.0135 30.4191 15.0457C30.697 15.0779 30.9763 14.9984 31.1955 14.8247C31.4147 14.6509 31.5559 14.3972 31.5881 14.1194C31.6203 13.8415 31.5408 13.5623 31.3671 13.343C29.7267 11.2727 27.2725 10.0854 24.6339 10.0854C19.8994 10.0854 16.0474 13.9374 16.0474 18.672C16.0474 20.3528 16.5331 21.9808 17.4522 23.3801C17.5281 23.496 17.6262 23.5957 17.7407 23.6737C17.8552 23.7516 17.984 23.8062 18.1197 23.8343C18.2553 23.8624 18.3951 23.8635 18.5312 23.8375C18.6673 23.8115 18.7969 23.7589 18.9126 23.6828C19.0284 23.6067 19.128 23.5086 19.2059 23.3941C19.2838 23.2795 19.3383 23.1508 19.3664 23.0152C19.3945 22.8795 19.3956 22.7397 19.3696 22.6036C19.3436 22.4676 19.2911 22.338 19.2151 22.2222C18.5225 21.1678 18.1566 19.94 18.1566 18.672C18.1567 15.1004 21.0623 12.1948 24.6339 12.1948Z" fill="#045531"/>
<path d="M55.6675 36.3545C55.0881 36.303 54.5748 36.731 54.5231 37.3113C54.1241 41.7791 52.0397 45.8768 48.6537 48.8497C48.5409 48.9487 48.4506 49.0706 48.3887 49.2073C48.3268 49.344 48.2948 49.4923 48.2948 49.6423V64.7973H32.9373V61.9694C32.9373 61.3867 32.4652 60.9147 31.8826 60.9147H23.4184C21.6962 60.9147 20.2951 59.5136 20.2951 57.7914V52.0609C20.2951 51.4783 19.823 51.0062 19.2404 51.0062H14.6022L19.6849 37.3236C19.7368 37.184 19.7585 37.035 19.7486 36.8864C19.7232 36.5052 19.7104 36.1234 19.7102 35.7414C19.7102 26.1239 27.5346 18.2997 37.152 18.2997C39.2038 18.2997 41.2143 18.6531 43.1275 19.3497C43.2577 19.3971 43.3959 19.4185 43.5342 19.4125C43.6726 19.4065 43.8084 19.3733 43.934 19.3148C44.0595 19.2563 44.1723 19.1736 44.2659 19.0715C44.3594 18.9694 44.432 18.8499 44.4794 18.7197C44.5268 18.5896 44.5481 18.4514 44.5421 18.313C44.5361 18.1747 44.5029 18.0388 44.4444 17.9133C44.3859 17.7878 44.3032 17.675 44.2012 17.5814C44.0991 17.4878 43.9795 17.4153 43.8494 17.3679C41.704 16.5866 39.4508 16.1904 37.152 16.1904C26.3715 16.1904 17.6009 24.9611 17.6009 35.7415C17.6009 36.0897 17.6107 36.4439 17.6301 36.798L12.0967 51.6937C12.0375 51.8532 12.0177 52.0247 12.0391 52.1934C12.0605 52.3622 12.1224 52.5233 12.2195 52.663C12.3166 52.8027 12.4461 52.9168 12.5968 52.9956C12.7476 53.0745 12.9151 53.1157 13.0853 53.1157H18.1859V57.7915C18.1859 60.6769 20.5332 63.0242 23.4185 63.0242H30.8279V64.7972H29.4281C29.2578 64.7972 29.09 64.8384 28.9391 64.9174C28.7882 64.9964 28.6587 65.1107 28.5616 65.2507L25.0278 70.3444C24.9181 70.5026 24.8537 70.6879 24.8418 70.8801C24.8298 71.0723 24.8707 71.2641 24.96 71.4347C25.0493 71.6053 25.1836 71.7482 25.3483 71.8479C25.5131 71.9476 25.702 72.0003 25.8945 72.0003H51.8259C52.4085 72.0003 52.8806 71.5282 52.8806 70.9456V65.8519C52.8806 65.2693 52.4085 64.7972 51.8259 64.7972H50.4043V50.112C53.9876 46.8091 56.1912 42.3488 56.6243 37.4989C56.6366 37.3609 56.6217 37.2219 56.5803 37.0897C56.5388 36.9575 56.4718 36.8348 56.383 36.7285C56.2941 36.6223 56.1852 36.5345 56.0624 36.4703C55.9397 36.4062 55.8055 36.3668 55.6675 36.3545ZM50.7711 69.8908H27.9097L29.9801 66.9064H31.8773L31.8827 66.9067L31.8882 66.9064H49.3444L49.3499 66.9067L49.3554 66.9064H50.7715V69.8908H50.7711Z" fill="#045531"/>
<path d="M65.1013 23.3209L56.8035 16.9712C56.0766 16.4149 55.1147 16.321 54.2939 16.7267C53.4729 17.1321 52.963 17.9528 52.963 18.8683V20.2966H46.1586C44.6509 20.2966 43.4244 21.5231 43.4244 23.0306V23.6345H41.6365V22.2061C41.6365 21.2905 41.1266 20.4698 40.3056 20.0645C39.4846 19.6588 38.523 19.7525 37.796 20.3091L29.4982 26.6587C28.9026 27.1144 28.561 27.8058 28.561 28.5558C28.561 29.3056 28.9026 29.997 29.4982 30.4527L37.796 36.8023C38.2234 37.1292 38.7315 37.2966 39.2447 37.2966C39.6047 37.2966 39.9673 37.2142 40.3058 37.0471C41.1266 36.6416 41.6365 35.8209 41.6365 34.9054V33.4772H48.4409C49.9486 33.4772 51.1751 32.2505 51.1751 30.743V30.1393H52.963V31.5675C52.963 32.4831 53.4729 33.3038 54.2937 33.7093C54.6235 33.8729 54.9866 33.9582 55.3547 33.9587C55.8677 33.9587 56.3762 33.7915 56.8035 33.4644L65.1013 27.1148C65.6969 26.6592 66.0384 25.9677 66.0384 25.2179C66.0384 24.4679 65.697 23.7765 65.1013 23.3209ZM49.0658 28.0298H46.1587C45.9931 28.0296 45.8342 27.9638 45.7171 27.8466C45.6 27.7295 45.5341 27.5707 45.5339 27.405V25.7438H48.441C48.6067 25.744 48.7655 25.8099 48.8826 25.927C48.9997 26.0441 49.0656 26.2029 49.0658 26.3685V28.0298ZM48.441 31.3678H40.5819C40.4434 31.3678 40.3063 31.3951 40.1783 31.4481C40.0503 31.5011 39.9341 31.5788 39.8361 31.6767C39.7382 31.7747 39.6605 31.8909 39.6075 32.0189C39.5545 32.1469 39.5272 32.284 39.5273 32.4225V34.9054C39.5273 35.049 39.4426 35.1208 39.3717 35.1559C39.3007 35.191 39.1923 35.2145 39.0781 35.1273L30.7802 28.7777C30.7457 28.7521 30.7177 28.7186 30.6986 28.68C30.6796 28.6415 30.67 28.5989 30.6707 28.5559C30.6707 28.4929 30.6898 28.4033 30.7802 28.334L39.0781 21.9844C39.1923 21.8972 39.3006 21.9207 39.3716 21.9558C39.4427 21.9908 39.5273 22.0628 39.5273 22.2063V24.6893C39.5273 25.2719 39.9993 25.744 40.5819 25.744H43.4245V27.4052C43.4245 28.9128 44.6512 30.1393 46.1587 30.1393H49.0658V30.743C49.0656 30.9087 48.9997 31.0675 48.8826 31.1846C48.7655 31.3017 48.6067 31.3676 48.441 31.3678ZM63.8195 25.4397L55.5217 31.7893C55.4075 31.8765 55.299 31.8529 55.228 31.8178C55.157 31.7828 55.0725 31.7108 55.0725 31.5674V29.0845C55.0725 28.5019 54.6004 28.0298 54.0178 28.0298H51.1752V26.3686C51.1752 24.861 49.9485 23.6346 48.441 23.6346H45.5339V23.0308C45.5341 22.8651 45.6 22.7064 45.7172 22.5892C45.8343 22.4721 45.9931 22.4063 46.1587 22.4061H54.0178C54.6004 22.4061 55.0725 21.934 55.0725 21.3514V18.8684C55.0725 18.7248 55.1572 18.653 55.2282 18.6179C55.2992 18.5829 55.4075 18.5593 55.5217 18.6465L63.8195 24.9961C63.9101 25.0655 63.9291 25.155 63.9291 25.218C63.9291 25.2808 63.9101 25.3703 63.8195 25.4397ZM40.5651 49.4709H39.1486C38.5659 49.4709 38.0939 49.943 38.0939 50.5256C38.0939 51.1082 38.5659 51.5803 39.1486 51.5803H40.5651C42.5383 51.5803 44.1437 49.9749 44.1437 48.0015V44.3342C44.1437 42.3609 42.5383 40.7555 40.5651 40.7555H39.1486C38.5659 40.7555 38.0939 41.2276 38.0939 41.8102C38.0939 42.3928 38.5659 42.8649 39.1486 42.8649H40.5651C41.3752 42.8649 42.0343 43.5242 42.0343 44.3342V48.0015C42.0343 48.8117 41.3752 49.4709 40.5651 49.4709Z" fill="#045531"/>
</g>
<defs>
<clipPath id="clip0_56567_3927">
<rect width="72" height="72" fill="white"/>
</clipPath>
</defs>
</svg>
