<svg width="32" height="32" viewBox="0 0 32 32" fill="none" xmlns="http://www.w3.org/2000/svg">
<path opacity="0.4" fill-rule="evenodd" clip-rule="evenodd" d="M29.3332 15.9998C29.3332 23.3636 23.3636 29.3332 15.9998 29.3332C8.63604 29.3332 2.6665 23.3636 2.6665 15.9998C2.6665 8.63604 8.63604 2.6665 15.9998 2.6665C18.4813 2.6665 20.8045 3.34439 22.7942 4.52508C21.8053 5.55895 21.3839 6.97249 21.7046 8.20156L22.1379 9.86233L23.7987 10.2957C25.0277 10.6163 26.4411 10.1949 27.475 9.20615C28.6554 11.1957 29.3332 13.5186 29.3332 15.9998ZM22.6665 15.9998C22.6665 19.6817 19.6817 22.6665 15.9998 22.6665C12.3179 22.6665 9.33317 19.6817 9.33317 15.9998C9.33317 12.3179 12.3179 9.33317 15.9998 9.33317C19.6817 9.33317 22.6665 12.3179 22.6665 15.9998Z" fill="#24795E"/>
<path fill-rule="evenodd" clip-rule="evenodd" d="M15.9998 3.6665C9.18832 3.6665 3.6665 9.18833 3.6665 15.9998C3.6665 22.8113 9.18832 28.3332 15.9998 28.3332C22.8113 28.3332 28.3332 22.8113 28.3332 15.9998C28.3332 15.1538 28.2481 14.3286 28.0864 13.5321C27.9766 12.9909 28.3263 12.463 28.8675 12.3532C29.4088 12.2433 29.9366 12.593 30.0465 13.1342C30.2346 14.061 30.3332 15.0194 30.3332 15.9998C30.3332 23.9159 23.9159 30.3332 15.9998 30.3332C8.08376 30.3332 1.6665 23.9159 1.6665 15.9998C1.6665 8.08376 8.08376 1.6665 15.9998 1.6665C16.9803 1.6665 17.9387 1.76509 18.8654 1.95321C19.4067 2.06307 19.7564 2.59091 19.6465 3.13215C19.5367 3.6734 19.0088 4.0231 18.4676 3.91323C17.6711 3.75155 16.8459 3.6665 15.9998 3.6665ZM15.9998 10.3332C12.8702 10.3332 10.3332 12.8702 10.3332 15.9998C10.3332 19.1295 12.8702 21.6665 15.9998 21.6665C19.1295 21.6665 21.6665 19.1295 21.6665 15.9998C21.6665 15.4476 22.1142 14.9998 22.6665 14.9998C23.2188 14.9998 23.6665 15.4476 23.6665 15.9998C23.6665 20.234 20.234 23.6665 15.9998 23.6665C11.7657 23.6665 8.33317 20.234 8.33317 15.9998C8.33317 11.7657 11.7657 8.33317 15.9998 8.33317C16.5521 8.33317 16.9998 8.78089 16.9998 9.33317C16.9998 9.88546 16.5521 10.3332 15.9998 10.3332ZM26.5335 2.85426C26.3597 2.18841 25.824 1.78034 25.244 1.68769C24.683 1.59807 24.1066 1.79649 23.6901 2.21293L22.1576 3.74545C20.9064 4.99667 20.3053 6.80197 20.7364 8.45414L21.0251 9.5605L15.2927 15.2929C14.9022 15.6834 14.9022 16.3165 15.2927 16.7071C15.6833 17.0976 16.3164 17.0976 16.7069 16.7071L22.4393 10.9747L23.5457 11.2634C25.1978 11.6945 27.0031 11.0934 28.2544 9.8422L29.7869 8.30968C30.2033 7.89324 30.4017 7.31682 30.3121 6.7558C30.2195 6.17581 29.8114 5.64006 29.1455 5.46633L27.074 4.92582L26.5335 2.85426ZM24.0506 9.32817L22.957 9.04283L22.6716 7.94922C22.4462 7.08517 22.7438 5.98765 23.5718 5.15966L24.7584 3.97305L25.2867 5.99791C25.3781 6.34816 25.6516 6.62167 26.0019 6.71306L28.0267 7.24137L26.8401 8.42798C26.0122 9.25597 24.9146 9.55361 24.0506 9.32817Z" fill="#24795E"/>
</svg>
