<svg width="32" height="29" viewBox="0 0 32 29" fill="none" xmlns="http://www.w3.org/2000/svg">
<path opacity="0.4" d="M21.4501 24.8776C23.7889 23.179 25.6307 21.4195 27.0422 19.6635L18.8178 10.5083C18.4811 10.1336 17.9175 10.0529 17.4858 10.3177L14.2317 12.3132C13.0866 13.0154 11.6004 12.8574 10.6351 11.9307C9.36019 10.7067 9.48881 8.65772 10.9072 7.59648L16.0011 3.78534L14.4617 2.65554C12.3688 1.1134 8.88492 0.145251 4.89323 2.54766C-0.345413 5.70057 -1.53079 16.1021 10.5527 24.8776C12.8543 26.549 14.005 27.3847 16.0014 27.3847C17.9978 27.3847 19.1485 26.549 21.4501 24.8776Z" fill="#24795E"/>
<path fill-rule="evenodd" clip-rule="evenodd" d="M15.1317 1.77953C15.1315 1.77933 15.132 1.77974 15.1317 1.77953L16.0008 2.41739L16.8703 1.77953C16.8699 1.7798 16.8706 1.77927 16.8703 1.77953C19.2751 0.008071 23.2563 -1.05634 27.6929 1.61384C32.6957 4.6248 34.0453 12.7189 27.9183 20.3416C26.4391 22.1821 24.5235 24.0079 22.1138 25.7579C22.0618 25.7957 22.0102 25.8332 21.959 25.8704C19.7986 27.4403 18.3678 28.48 16.001 28.48C13.6342 28.48 12.2034 27.4403 10.043 25.8704C9.9918 25.8332 9.94019 25.7957 9.88815 25.7579C3.66673 21.2397 0.729011 16.2029 0.120284 11.7497C-0.48552 7.31774 1.24091 3.46044 4.30911 1.61384C8.74584 -1.05643 12.7269 0.00796445 15.1317 1.77953ZM14.1483 3.79362L13.791 3.53131C12.0099 2.21896 9.02269 1.347 5.47656 3.48126C3.30611 4.78755 1.82053 7.70749 2.33325 11.4584C2.84305 15.188 5.3544 19.7398 11.2165 23.997C13.5716 25.7073 14.4312 26.2892 16.001 26.2892C17.5708 26.2892 18.4304 25.7073 20.7855 23.997C22.7361 22.5804 24.3168 21.1298 25.5758 19.6881L18.0224 11.2799L14.823 13.2419C13.2409 14.2121 11.1875 13.9938 9.85398 12.7135C8.09249 11.0224 8.2702 8.19155 10.2299 6.72533L14.1483 3.79362ZM26.9662 17.9227C31.6099 11.3345 29.797 5.45027 26.5254 3.48126C22.9793 1.347 19.9921 2.21896 18.211 3.53131L18.2092 3.53268L16.6734 4.6594L11.5838 8.46739C10.7066 9.12366 10.6271 10.3907 11.4155 11.1477C12.0124 11.7207 12.9315 11.8184 13.6396 11.3842L16.8937 9.38867C17.7887 8.83983 18.957 9.00707 19.6549 9.78392L26.9662 17.9227Z" fill="#24795E"/>
</svg>
