<svg width="32" height="32" viewBox="0 0 32 32" fill="none" xmlns="http://www.w3.org/2000/svg">
<g opacity="0.4">
<path d="M23.3336 10.6667C23.3336 10.6667 25.0825 9.19512 24.6933 6.9729C24.3042 4.75067 22.1661 4 22.1661 4C22.1661 4 20.4172 5.47155 20.8063 7.69377C21.1955 9.91599 23.3336 10.6667 23.3336 10.6667Z" fill="#24795E"/>
<path d="M24.1036 17.2004C24.1036 17.2004 26.417 17.8748 28.1254 16.1857C29.8339 14.4965 29.229 12.133 29.229 12.133C29.229 12.133 26.9156 11.4585 25.2072 13.1476C23.4987 14.8368 24.1036 17.2004 24.1036 17.2004Z" fill="#24795E"/>
<path d="M24.3112 24.2528C22.3112 23.4853 21.9998 21.3333 21.9998 21.3333C21.9998 21.3333 23.6885 19.9488 25.6885 20.7163C27.6885 21.4837 27.9998 23.6357 27.9998 23.6357C27.9998 23.6357 26.3112 25.0202 24.3112 24.2528Z" fill="#24795E"/>
<path d="M9.99984 21.3332C9.99984 21.3332 9.68852 23.4852 7.68852 24.2526C5.68852 25.0201 3.99984 23.6356 3.99984 23.6356C3.99984 23.6356 4.31116 21.4836 6.31116 20.7161C8.31116 19.9487 9.99984 21.3332 9.99984 21.3332Z" fill="#24795E"/>
<path d="M3.87403 16.1857C5.5825 17.8748 7.89588 17.2004 7.89588 17.2004C7.89588 17.2004 8.50078 14.8368 6.79231 13.1476C5.08384 11.4585 2.77046 12.133 2.77046 12.133C2.77046 12.133 2.16556 14.4965 3.87403 16.1857Z" fill="#24795E"/>
<path d="M8.66608 10.6667C8.66608 10.6667 6.91716 9.19512 7.30633 6.9729C7.69551 4.75067 9.8336 4 9.8336 4C9.8336 4 11.5825 5.47155 11.1933 7.69377C10.8042 9.91599 8.66608 10.6667 8.66608 10.6667Z" fill="#24795E"/>
</g>
<path fill-rule="evenodd" clip-rule="evenodd" d="M7.48545 10.8565C6.86995 10.1089 6.002 8.6768 6.32905 6.80501C6.80891 4.03199 9.39484 3.09876 9.5148 3.05877C9.84804 2.93878 10.2212 3.00545 10.4878 3.23209C10.5811 3.31208 12.6739 5.11188 12.194 7.85823C11.8197 10.0216 10.1634 11.0652 9.39636 11.4385C9.1354 12.3628 8.99633 13.3326 8.99633 14.3223C8.99633 19.0271 12.0064 22.8607 15.7663 23.0102C15.8452 23.0043 15.9254 23.0013 16.007 23.0013C16.0853 23.0013 16.1624 23.0041 16.2382 23.0095C19.9907 22.8493 22.9922 19.0074 22.9922 14.3223C22.9922 13.333 22.8632 12.3636 22.5966 11.4397C21.8241 11.0555 20.199 10.0112 19.8186 7.87254C19.3388 5.11285 21.4315 3.31305 21.5248 3.24639C21.7914 3.01975 22.1646 2.95308 22.4979 3.07307L22.5023 3.07472C22.6613 3.13387 25.1959 4.07686 25.6836 6.81931C26.013 8.71361 25.1303 10.1556 24.5141 10.8953C24.6318 11.3159 24.7276 11.7444 24.8009 12.1789C26.8175 10.4736 29.2936 11.1218 29.4984 11.1754L29.5088 11.1781C29.8421 11.2714 30.1086 11.5514 30.2019 11.8847L30.2039 11.8935C30.2521 12.1037 30.885 14.8673 28.829 16.8975C27.6453 18.0681 26.2492 18.3361 25.2234 18.3373C24.8755 18.3369 24.5722 18.3052 24.338 18.269C24.1914 18.704 24.0214 19.125 23.8299 19.5298C24.4896 19.4405 25.2437 19.4821 26.0434 19.791C28.4436 20.7183 28.92 23.1461 28.9827 23.4657C28.9858 23.4816 28.9879 23.4922 28.9892 23.4973C29.0425 23.8439 28.9092 24.1905 28.6293 24.4172L28.6274 24.4187C28.5419 24.4872 27.2821 25.4971 25.5502 25.4971V25.4837C25.0437 25.4837 24.5105 25.4038 23.9507 25.1905C22.5783 24.6603 21.8349 23.6395 21.4381 22.8028C20.642 23.527 19.7417 24.0971 18.7691 24.4751C19.8591 25.8338 20.2875 27.6578 20.3125 27.7741C20.4324 28.3074 20.0992 28.8407 19.566 28.974C19.0328 29.094 18.4863 28.7607 18.3663 28.2274C18.1664 27.3875 17.3267 25.0011 16.007 25.0011L15.9994 25.0011C14.6843 25.0117 13.8074 27.5489 13.6477 28.2274C13.5411 28.694 13.1279 29.0006 12.6747 29.0006C12.6081 29.0006 12.528 29.0006 12.4481 28.974C11.9149 28.854 11.5683 28.3207 11.7016 27.7741C11.7265 27.6498 12.1529 25.8367 13.2368 24.4818C12.2611 24.1053 11.3579 23.5355 10.5592 22.8107C10.159 23.6464 9.41248 24.6577 8.04925 25.1771C7.48941 25.3904 6.94289 25.4704 6.4497 25.4704V25.4837C4.70355 25.4837 3.43725 24.4705 3.37061 24.4038C3.10402 24.1772 2.97074 23.8306 3.01073 23.4839C3.02406 23.3773 3.43726 20.7376 5.95652 19.7777C6.74701 19.4749 7.49638 19.4334 8.15443 19.5207C7.96468 19.1187 7.79615 18.7008 7.65066 18.2692C7.41791 18.3047 7.11863 18.3353 6.77606 18.3357C5.7635 18.3346 4.35417 18.0666 3.17044 16.8959C1.11446 14.8658 1.74737 12.1021 1.79551 11.8919L1.79751 11.8831C1.89082 11.5365 2.14406 11.2699 2.49063 11.1766L2.5121 11.1713C2.78596 11.103 5.21361 10.4977 7.18953 12.1682C7.26487 11.724 7.36368 11.2861 7.48545 10.8565ZM6.77606 18.3357L6.7827 18.3357H6.7694L6.77606 18.3357ZM25.2234 18.3373L25.2301 18.3373H25.2167L25.2234 18.3373ZM8.30182 7.15161C8.4751 6.16505 9.12823 5.56513 9.62142 5.24517C9.96799 5.72511 10.3945 6.53838 10.2213 7.52494C10.048 8.51149 9.39485 9.11142 8.90166 9.43138C8.5551 8.95143 8.12854 8.13816 8.30182 7.15161ZM3.67696 13.003C3.65031 13.6429 3.77026 14.6695 4.58336 15.4694C5.38312 16.2693 6.38284 16.3626 7.00932 16.3226C7.03598 15.6827 6.91602 14.6562 6.10293 13.8563C5.30316 13.0564 4.30345 12.963 3.67696 13.003ZM5.18343 23.1907C5.68995 23.4306 6.47638 23.6572 7.34279 23.324C8.19587 23.004 8.62241 22.2974 8.83568 21.7908C8.32916 21.5508 7.54273 21.3242 6.67632 21.6575C5.82324 21.9908 5.38337 22.6841 5.18343 23.1907ZM22.3912 5.24616C22.0313 5.72611 21.6181 6.52605 21.7914 7.52594C21.9647 8.51249 22.6178 9.11241 23.111 9.43238C23.4709 8.95243 23.8841 8.15249 23.7108 7.15261C23.5376 6.16605 22.8844 5.56613 22.3912 5.24616ZM25.0035 16.3375C25.6299 16.3642 26.6297 16.2708 27.4294 15.4843C28.2425 14.671 28.3625 13.6578 28.3492 13.0179C27.7227 12.9912 26.723 13.0845 25.9232 13.8711C25.1101 14.671 24.9902 15.6976 25.0168 16.3375H25.0035ZM26.8298 23.1907C26.3366 23.4307 25.5369 23.6573 24.6705 23.324C23.8174 22.9907 23.3908 22.2974 23.1776 21.7908C23.6841 21.5508 24.4705 21.3242 25.3369 21.6575C26.19 21.9908 26.6166 22.6841 26.8298 23.1907Z" fill="#24795E"/>
<path d="M14.6634 19.0002H17.334C17.8788 19.0002 18.3306 18.5469 18.3306 18.0002C18.3306 17.4535 17.8788 17.0002 17.334 17.0002H17.0019V11.3335C17.0019 10.9869 16.8158 10.6668 16.5235 10.4802C16.2312 10.2935 15.8592 10.2802 15.5536 10.4402L14.2249 11.1069C13.72 11.3602 13.5207 11.9602 13.7731 12.4536C13.999 12.9069 14.5305 13.1069 14.9955 12.9469V17.0002H14.6634C14.1186 17.0002 13.6668 17.4535 13.6668 18.0002C13.6668 18.5469 14.1186 19.0002 14.6634 19.0002Z" fill="#24795E"/>
</svg>
